<?xml version="1.0" encoding="UTF-8" standalone="no"?>
<!-- Created with Inkscape (http://www.inkscape.org/) -->

<svg
   width="210mm"
   height="297mm"
   viewBox="0 0 210 297"
   version="1.1"
   id="svg5"
   inkscape:version="1.1 (c68e22c387, 2021-05-23)"
   sodipodi:docname="earth_block1.svg"
   inkscape:export-filename="C:\game\Converyor-Defense\Game Files\Graphics\Sprites\earth_block.png"
   inkscape:export-xdpi="96"
   inkscape:export-ydpi="96"
   xmlns:inkscape="http://www.inkscape.org/namespaces/inkscape"
   xmlns:sodipodi="http://sodipodi.sourceforge.net/DTD/sodipodi-0.dtd"
   xmlns="http://www.w3.org/2000/svg"
   xmlns:svg="http://www.w3.org/2000/svg">
  <sodipodi:namedview
     id="namedview7"
     pagecolor="#ffffff"
     bordercolor="#999999"
     borderopacity="1"
     inkscape:pageshadow="0"
     inkscape:pageopacity="0"
     inkscape:pagecheckerboard="0"
     inkscape:document-units="mm"
     showgrid="false"
     inkscape:zoom="0.52410025"
     inkscape:cx="-320.54936"
     inkscape:cy="88.723484"
     inkscape:window-width="1920"
     inkscape:window-height="1017"
     inkscape:window-x="1352"
     inkscape:window-y="-8"
     inkscape:window-maximized="1"
     inkscape:current-layer="layer1" />
  <defs
     id="defs2" />
  <g
     inkscape:label="Слой 1"
     inkscape:groupmode="layer"
     id="layer1">
    <g
       id="g4455">
      <rect
         style="fill:#f2f2f2;fill-rule:evenodd;stroke:none;stroke-width:10;stroke-linecap:square;paint-order:markers stroke fill"
         id="rect846"
         width="40"
         height="40"
         x="0"
         y="0" />
      <path
         style="fill:#000000;fill-opacity:1;stroke:none;stroke-width:0.264583px;stroke-linecap:butt;stroke-linejoin:miter;stroke-opacity:1"
         d="M 1.5776045,34.076256 5.9948971,26.629963 6.1842096,15.712941 9.7811478,9.9073561 7.4462933,7.8249184 2.5241672,9.6549394 7.5725016,7.1938765 l 2.6503754,2.2717504 6.625939,-4.3541884 5.237647,0.5837137 8.771481,-0.8361304 3.234089,-2.9501204 0.299744,0.2997449 -3.029,2.7765839 0.06311,1.2620836 5.994898,4.0386672 -0.220865,0.268194 -6.18421,-4.1017726 -0.126209,-1.1043231 -8.361304,0.8361303 5.111439,4.7328134 7.367413,1.120099 -0.04733,0.394401 -7.162326,-1.07277 0.567938,1.388291 -1.104326,-1.5145 L 21.89715,6.1842096 16.975024,5.616272 10.853919,9.8442519 10.301757,9.8284748 10.443742,10.222876 9.0581429,12.404746 8.6565503,12.20395 8.8573466,12.583232 6.6932089,15.706729 6.4254805,26.638972 1.6801488,34.155136 Z"
         id="path3829"
         sodipodi:nodetypes="cccccccccccccccccccccccccccccccccccccc" />
    </g>
  </g>
</svg>
