<?xml version="1.0" encoding="UTF-8" standalone="no"?>
<!-- Created with Inkscape (http://www.inkscape.org/) -->

<svg
   width="210mm"
   height="297mm"
   viewBox="0 0 210 297"
   version="1.1"
   id="svg5"
   inkscape:version="1.1 (c68e22c387, 2021-05-23)"
   sodipodi:docname="way_right_to_left.svg"
   inkscape:export-filename="C:\game\Converyor-Defense\Game Files\Graphics\Sprites\way_right_to_left.png"
   inkscape:export-xdpi="162.56"
   inkscape:export-ydpi="162.56"
   xmlns:inkscape="http://www.inkscape.org/namespaces/inkscape"
   xmlns:sodipodi="http://sodipodi.sourceforge.net/DTD/sodipodi-0.dtd"
   xmlns="http://www.w3.org/2000/svg"
   xmlns:svg="http://www.w3.org/2000/svg">
  <sodipodi:namedview
     id="namedview7"
     pagecolor="#ffffff"
     bordercolor="#999999"
     borderopacity="1"
     inkscape:pageshadow="0"
     inkscape:pageopacity="0"
     inkscape:pagecheckerboard="0"
     inkscape:document-units="mm"
     showgrid="false"
     inkscape:zoom="1.4823793"
     inkscape:cx="-36.427924"
     inkscape:cy="65.77264"
     inkscape:window-width="1920"
     inkscape:window-height="1017"
     inkscape:window-x="1352"
     inkscape:window-y="-8"
     inkscape:window-maximized="1"
     inkscape:current-layer="g31351"
     showguides="true" />
  <defs
     id="defs2">
    <inkscape:path-effect
       effect="spiro"
       id="path-effect9615"
       is_visible="true"
       lpeversion="1" />
    <inkscape:path-effect
       effect="spiro"
       id="path-effect3831"
       is_visible="true"
       lpeversion="1" />
  </defs>
  <g
     inkscape:label="Слой 1"
     inkscape:groupmode="layer"
     id="layer1">
    <g
       id="g1280">
      <g
         id="g31351">
        <g
           id="g22887"
           transform="translate(19.30988,79.511271)" />
        <g
           id="g998">
          <g
             id="g1677">
            <rect
               style="fill:#ffe6d5;fill-opacity:1;fill-rule:evenodd;stroke:none;stroke-width:6.15765;stroke-linecap:square;paint-order:markers stroke fill"
               id="rect6634-85"
               width="10.414363"
               height="5"
               x="0"
               y="0" />
            <rect
               style="fill:#f4e3d7;fill-opacity:1;fill-rule:evenodd;stroke:none;stroke-width:7.41093;stroke-linecap:square;paint-order:markers stroke fill"
               id="rect6638-8"
               width="15.617539"
               height="5"
               x="10.414363"
               y="-5"
               transform="scale(1,-1)" />
            <rect
               style="fill:#ffe6d5;fill-opacity:1;fill-rule:evenodd;stroke:none;stroke-width:7.18063;stroke-linecap:square;paint-order:markers stroke fill"
               id="rect6640-3"
               width="3.5537338"
               height="5"
               x="36.446266"
               y="4.4408921e-16" />
            <rect
               style="fill:#f4eed7;fill-opacity:1;fill-rule:evenodd;stroke:none;stroke-width:4.58491;stroke-linecap:square;paint-order:markers stroke fill"
               id="rect6634-2-7"
               width="5.773829"
               height="5"
               x="0"
               y="5" />
            <rect
               style="fill:#fff6d5;fill-opacity:1;fill-rule:evenodd;stroke:none;stroke-width:8.09534;stroke-linecap:square;paint-order:markers stroke fill"
               id="rect6634-6-96"
               width="18"
               height="5"
               x="5.773829"
               y="5" />
            <rect
               style="fill:#fff6d5;fill-opacity:1;fill-rule:evenodd;stroke:none;stroke-width:7.21459;stroke-linecap:square;paint-order:markers stroke fill"
               id="rect6634-3-4"
               width="14.296385"
               height="5"
               x="17.855114"
               y="10" />
            <rect
               style="fill:#f4eed7;fill-opacity:1;fill-rule:evenodd;stroke:none;stroke-width:8.09534;stroke-linecap:square;paint-order:markers stroke fill"
               id="rect6634-5-12"
               width="18"
               height="5"
               x="8.8813992"
               y="15" />
            <rect
               style="fill:#ffe6d5;fill-opacity:1;fill-rule:evenodd;stroke:none;stroke-width:5.91543;stroke-linecap:square;paint-order:markers stroke fill"
               id="rect6634-5-4-24"
               width="9.6111517"
               height="5"
               x="10.932331"
               y="20" />
            <rect
               style="fill:#f4e3d7;fill-opacity:1;fill-rule:evenodd;stroke:none;stroke-width:5.68643;stroke-linecap:square;paint-order:markers stroke fill"
               id="rect6634-26-97"
               width="8.8813992"
               height="5"
               x="0"
               y="15" />
            <rect
               style="fill:#f4e3d7;fill-opacity:1;fill-rule:evenodd;stroke:none;stroke-width:4.5026;stroke-linecap:square;paint-order:markers stroke fill"
               id="rect6634-72-9"
               width="5.5683842"
               height="5"
               x="34.431618"
               y="35" />
            <rect
               style="fill:#fff6d5;fill-opacity:1;fill-rule:evenodd;stroke:none;stroke-width:4.01721;stroke-linecap:square;paint-order:markers stroke fill"
               id="rect6634-69-10"
               width="4.4325271"
               height="5"
               x="35.567474"
               y="30" />
            <rect
               style="fill:#ffe6d5;fill-opacity:1;fill-rule:evenodd;stroke:none;stroke-width:2.63596;stroke-linecap:square;paint-order:markers stroke fill"
               id="rect6634-8-5"
               width="1.9084518"
               height="5"
               x="0"
               y="24.999998" />
            <rect
               style="fill:#f4eed7;fill-opacity:1;fill-rule:evenodd;stroke:none;stroke-width:6.30892;stroke-linecap:square;paint-order:markers stroke fill"
               id="rect6634-4-2"
               width="10.932331"
               height="5"
               x="0"
               y="20" />
            <rect
               style="fill:#ffe6d5;fill-opacity:1;fill-rule:evenodd;stroke:none;stroke-width:3.10575;stroke-linecap:square;paint-order:markers stroke fill"
               id="rect6634-74-1"
               width="2.6493244"
               height="5"
               x="37.350674"
               y="25" />
            <rect
               style="fill:#f4eed7;fill-opacity:1;fill-rule:evenodd;stroke:none;stroke-width:3.81618;stroke-linecap:square;paint-order:markers stroke fill"
               id="rect6634-61-8"
               width="4"
               height="5"
               x="36"
               y="20" />
            <rect
               style="fill:#f4eed7;fill-opacity:1;fill-rule:evenodd;stroke:none;stroke-width:5.76186;stroke-linecap:square;paint-order:markers stroke fill"
               id="rect6634-1-9"
               width="9.1185999"
               height="5"
               x="26.881399"
               y="15" />
            <rect
               style="fill:#f4e3d7;fill-opacity:1;fill-rule:evenodd;stroke:none;stroke-width:5.34554;stroke-linecap:square;paint-order:markers stroke fill"
               id="rect6634-65-2"
               width="7.8484993"
               height="5"
               x="32.151501"
               y="10" />
            <rect
               style="fill:#f4e3d7;fill-opacity:1;fill-rule:evenodd;stroke:none;stroke-width:5.18358;stroke-linecap:square;paint-order:markers stroke fill"
               id="rect6634-266-3"
               width="7.3801079"
               height="5"
               x="23.773829"
               y="5" />
            <rect
               style="fill:#f4e3d7;fill-opacity:1;fill-rule:evenodd;stroke:none;stroke-width:8.09534;stroke-linecap:square;paint-order:markers stroke fill"
               id="rect6634-22-2"
               width="18"
               height="5"
               x="0"
               y="10" />
            <rect
               style="fill:#fff6d5;fill-opacity:1;fill-rule:evenodd;stroke:none;stroke-width:3.90116;stroke-linecap:square;paint-order:markers stroke fill"
               id="rect6634-99-8"
               width="4.1801381"
               height="5"
               x="2.7755576e-17"
               y="29.999998" />
            <rect
               style="fill:#f4e3d7;fill-opacity:1;fill-rule:evenodd;stroke:none;stroke-width:8.09534;stroke-linecap:square;paint-order:markers stroke fill"
               id="rect6634-44-2"
               width="18"
               height="5"
               x="0"
               y="35" />
            <rect
               style="fill:#fff6d5;fill-opacity:1;fill-rule:evenodd;stroke:none;stroke-width:6.15765;stroke-linecap:square;paint-order:markers stroke fill"
               id="rect6634-656-9"
               width="10.414363"
               height="5"
               x="26.031902"
               y="0" />
            <rect
               style="fill:#f4eed7;fill-opacity:1;fill-rule:evenodd;stroke:none;stroke-width:5.69153;stroke-linecap:square;paint-order:markers stroke fill"
               id="rect6634-2-5-33"
               width="8.8973522"
               height="5"
               x="31.102648"
               y="5" />
            <rect
               style="fill:#f4e3d7;fill-opacity:1;fill-rule:evenodd;stroke:none;stroke-width:3.81618;stroke-linecap:square;paint-order:markers stroke fill"
               id="rect6634-26-9-2"
               width="4.0000019"
               height="5"
               x="36"
               y="15" />
            <rect
               style="fill:#fff6d5;fill-opacity:1;fill-rule:evenodd;stroke:none;stroke-width:7.80932;stroke-linecap:square;paint-order:markers stroke fill"
               id="rect6634-22-9-3"
               width="16.750536"
               height="5"
               x="17.68108"
               y="35" />
            <rect
               style="fill:#f4e3d7;fill-opacity:1;fill-rule:evenodd;stroke:none;stroke-width:5.80455;stroke-linecap:square;paint-order:markers stroke fill"
               id="rect6634-5-7-2"
               width="9.2542191"
               height="5"
               x="20.543484"
               y="20" />
            <rect
               style="fill:#fff6d5;fill-opacity:1;fill-rule:evenodd;stroke:none;stroke-width:5.34368;stroke-linecap:square;paint-order:markers stroke fill"
               id="rect6634-5-1-30"
               width="7.8430138"
               height="5"
               x="29.797703"
               y="20" />
            <rect
               style="fill:#f4eed7;fill-opacity:1;fill-rule:evenodd;stroke:none;stroke-width:7.27066;stroke-linecap:square;paint-order:markers stroke fill"
               id="rect6634-5-4-8-93"
               width="14.519479"
               height="5"
               x="1.9084518"
               y="24.999998" />
            <rect
               style="fill:#f4e3d7;fill-opacity:1;fill-rule:evenodd;stroke:none;stroke-width:6.02428;stroke-linecap:square;paint-order:markers stroke fill"
               id="rect6634-5-4-8-9-85"
               width="9.9681225"
               height="5"
               x="16.427931"
               y="24.999998" />
            <rect
               style="fill:#f4eed7;fill-opacity:1;fill-rule:evenodd;stroke:none;stroke-width:6.41605;stroke-linecap:square;paint-order:markers stroke fill"
               id="rect6634-5-4-8-9-2-0"
               width="11.306777"
               height="5"
               x="26.396053"
               y="24.999998" />
            <rect
               style="fill:#ffe6d5;fill-opacity:1;fill-rule:evenodd;stroke:none;stroke-width:8.09534;stroke-linecap:square;paint-order:markers stroke fill"
               id="rect6634-5-0-1"
               width="18"
               height="5"
               x="4.1801381"
               y="29.999998" />
            <rect
               style="fill:#f4eed7;fill-opacity:1;fill-rule:evenodd;stroke:none;stroke-width:6.99286;stroke-linecap:square;paint-order:markers stroke fill"
               id="rect6634-4-3-6"
               width="13.431129"
               height="5"
               x="22.180138"
               y="29.999998" />
            <rect
               style="fill:#f3dfd1;fill-opacity:0.33677;fill-rule:evenodd;stroke:none;stroke-width:10;stroke-linecap:square;stroke-opacity:1;paint-order:markers stroke fill"
               id="rect20326"
               width="40"
               height="40"
               x="0"
               y="0" />
            <path
               style="fill:#fff6d5;fill-opacity:0.216495;stroke:none;stroke-width:0.264583px;stroke-linecap:butt;stroke-linejoin:miter;stroke-opacity:1"
               d="m 0,29.999998 c 0,0 8.4627011,-0.19964 12.309291,-2.740787 3.488796,-2.30478 6.122552,5.887681 9.870846,7.740787 1.978918,0.97835 4.243142,2.074003 6.411404,1.659361 3.694882,-0.706581 5.356192,-6.434311 9.11129,-6.659361 0.806817,-0.04835 2.297168,2e-6 2.297168,2e-6 v 9.999999 H 0 Z"
               id="path29145"
               sodipodi:nodetypes="csaascccc" />
            <path
               style="fill:#e3dedb;fill-opacity:0.243986;stroke:none;stroke-width:0.264583px;stroke-linecap:butt;stroke-linejoin:miter;stroke-opacity:1"
               d="m 0,25 c 0,0 1.4522059,-0.144026 2.1133258,0.101543 4.5536079,1.691417 6.8879413,10.548146 11.4829392,8.972637 3.951403,-1.354836 -1.032152,-11.325238 3.062496,-12.151692 4.529833,-0.91429 3.825475,12.077343 8.337007,11.076648 2.690527,-0.596782 -0.03095,-5.954178 1.712622,-8.088429 0.896705,-1.097627 2.503276,-1.455011 3.900525,-1.692835 1.736337,-0.29554 5.197647,4.902625 6.497681,3.840002 0.580836,-0.474764 1.571049,-1.955154 2.318977,-2.013253 L 39.999999,25 40,5 c 0,0 -0.969826,-0.00846 -1.330645,0.2641138 -3.584852,2.7080855 -2.464279,9.4131492 -6.13784,11.9996212 -1.704598,1.200169 -4.655698,2.202023 -6.202256,0.80409 C 22.807953,14.884918 31.018245,5.8660146 26.728776,3.8335419 23.012515,2.0726718 21.433752,12.731748 17.404082,11.911374 13.590876,11.135069 16.158379,1.6054978 12.271092,1.4260947 7.6767062,1.2140581 9.6494907,13.801432 5.0887655,13.207191 2.3380294,12.848783 4.8736929,6.9798623 2.7222212,5.2288125 2.0159654,4.6540017 0,5 0,5 Z"
               id="path30016"
               sodipodi:nodetypes="caaaaasssccaaaaaaaacc" />
            <path
               style="fill:#fff6d5;fill-opacity:0.164948;stroke:none;stroke-width:0.264583px;stroke-linecap:butt;stroke-linejoin:miter;stroke-opacity:1"
               d="M 3.8656683e-4,2.5 C 6.3751656,2.5291344 5.5467445,2.1011501 8.3300466,2.0181189 10.916509,1.9409598 13.560148,1.608328 16.091879,2.1431952 c 3.642799,0.7695976 6.652946,3.5410849 10.286617,4.3526883 2.609189,0.5827788 5.594814,1.451757 8.014278,0.314352 1.519882,-0.714506 1.601757,-3.1695122 3.059951,-4.0027177 C 38.195306,2.3832102 40,2.5 40,2.5 L 39.999999,0 H 0 Z"
               id="path32003"
               sodipodi:nodetypes="csaaaacccc" />
          </g>
          <path
             style="fill:#f3e5a4;fill-opacity:1;stroke:none;stroke-width:0.264583px;stroke-linecap:butt;stroke-linejoin:miter;stroke-opacity:1"
             d="m 0,40 h 39.99999 v -2.1 h -2 c -2.35468,0 -4.69485,-0.36543 -7.0474,-0.38455 -2.19966,-0.0179 -4.39551,0.1907 -6.59438,0.25241 -1.17767,0.0331 -2.35578,0.0499 -3.53384,0.0631 -2.32421,0.026 -4.64906,0.0753 -6.97301,0.0316 C 11.35697,37.81556 8.86789,37.49918 6.37351,37.54704 4.91121,37.57514 2,37.90004 2,37.90004 H 0 Z"
             id="path4088-3-2"
             sodipodi:nodetypes="cccsaaaaaccc" />
          <g
             id="g26795-5-4"
             transform="translate(-2.08e-4)"
             style="fill:#000000;fill-opacity:0.202749">
            <path
               id="path4088-6-5-1-4"
               style="fill:#000000;fill-opacity:0.202749;stroke:none;stroke-width:1.00223px;stroke-linecap:butt;stroke-linejoin:miter;stroke-opacity:1"
               d="M 7.8614174e-4,0 V 90.207032 C 6.1477197,90.58634 13.234862,91.238711 19.390625,91.277344 c 9.386355,0.05891 18.769704,-1.429865 28.144531,-0.958985 4.166155,0.209258 8.245578,1.327562 12.402344,1.677735 5.905448,0.497503 11.841468,0.627514 17.767578,0.597656 11.27421,-0.05684 22.519342,-1.233741 33.791012,-1.480469 2.51909,-0.05513 7.5586,0 7.5586,0 V 0 Z"
               transform="scale(0.26458333)"
               sodipodi:nodetypes="ccssscsccc" />
            <path
               id="path4088-6-5-2-9-6"
               style="fill:#000000;fill-opacity:0.202749;stroke:none;stroke-width:1.00223px;stroke-linecap:butt;stroke-linejoin:miter;stroke-opacity:1"
               d="m 119.05469,0 v 91.113281 c 0,0 5.04059,0.09252 7.55859,0 5.24221,-0.192646 10.45007,-1.083808 15.69531,-1.154297 2.95967,-0.03977 5.91723,0.0777 8.87305,0.248047 V 0 Z"
               transform="scale(0.26458333)" />
          </g>
          <path
             style="fill:#d6cc9b;fill-opacity:1;stroke:none;stroke-width:0.264509px;stroke-linecap:butt;stroke-linejoin:miter;stroke-opacity:1"
             d="m 0,0 v 17.799999 c 5.02048,0.01519 6.26551,0.239909 6.26551,0.239909 l 1.71813,-0.0631 c -0.0547,-0.0014 1.50707,-0.269428 5.27099,-0.291507 4.42728,-0.02597 6.14363,0.287667 6.14363,0.287667 h 1.829 c 0,0 0.90998,-0.328225 5.61816,-0.350172 4.50084,-0.02098 5.86386,0.385559 5.86386,0.385559 l 1.69447,-0.01578 C 34.24381,17.912555 37.31873,17.766108 40,17.799999 V 0 Z"
             id="path10050-1-3"
             sodipodi:nodetypes="ccccsccsccccc" />
          <path
             style="fill:#9c9989;fill-opacity:1;stroke:none;stroke-width:0.264583px;stroke-linecap:butt;stroke-linejoin:miter;stroke-opacity:1"
             d="m 0,14.499999 c 2.84412,-0.04663 4.26598,0.281018 6.38086,0.426293 h 1.56175 c 0,0 3.75807,-0.401654 5.6446,-0.490835 1.92036,-0.09078 5.76733,-0.04462 5.76733,-0.04462 l 1.80716,0.267728 c 0,0 3.94964,-0.128991 5.90771,-0.194261 3.97656,-0.132553 5.63807,0.0604 5.63807,0.0604 l 1.58407,0.33466 C 36.19509,14.735935 38.12318,14.489782 40,14.499994 v -0.5 c -2.68,0.04089 -3.80613,0.141544 -5.70842,0.212346 l -1.4502,-0.178486 c 0,0 -4.14485,-0.140341 -6.21815,-0.149636 -4.19147,-0.01879 -5.47265,0.261193 -5.47265,0.261193 l -1.80717,-0.200797 c 0,0 -2.68759,-0.144843 -5.66692,-0.02231 -3.68789,0.151673 -5.68923,0.423904 -5.68923,0.423904 l -1.65099,0.04462 C 4.30167,14.24118 2.78542,13.961943 3e-5,13.999994 Z"
             id="path13052-8-1-1"
             sodipodi:nodetypes="cccaccsccccccsccscccc" />
          <path
             style="fill:#9c9989;fill-opacity:1;stroke:none;stroke-width:0.264583px;stroke-linecap:butt;stroke-linejoin:miter;stroke-opacity:1"
             d="m 0,7.499999 c 2.25398,-0.04082 4.12009,0.133838 6.18006,0.200797 l 1.69562,0.114341 c 0,0 7.54433,-0.146595 8.75995,-0.161917 0.89563,-0.01129 2.68544,-0.09465 2.68544,-0.09465 h 1.8741 c 0,0 6.03817,-0.176186 9.05814,-0.178485 0.81819,-6.23e-4 2.45417,0.04462 2.45417,0.04462 l 1.67331,0.301194 C 36.25183,7.649729 37.85264,7.457753 40,7.500005 v -0.5 C 37.84952,6.955745 36.25233,7.148608 34.38082,7.223904 L 32.84138,6.933865 c 0,0 -5.13146,0.05954 -7.69719,0.08924 -1.28658,0.0149 -3.85975,0.04462 -3.85975,0.04462 l -1.8741,0.04462 c 0,0 -4.26901,0.0095 -6.40317,0.04462 -1.72199,0.02831 -5.16493,0.133866 -5.16493,0.133866 L 6.19125,7.268521 C 4.1278,7.178971 2.61615,7.004524 3e-5,6.999998 Z"
             id="path13052-81-0-1"
             sodipodi:nodetypes="cccsccaccccccaccacccc" />
          <path
             style="fill:#9c9989;fill-opacity:1;stroke:none;stroke-width:0.264583px;stroke-linecap:butt;stroke-linejoin:miter;stroke-opacity:1"
             d="m 0,10.999999 c 2.22869,0.007 4.25391,0.217529 6.38086,0.326293 h 1.56175 c 0,0 2.646,-0.205239 3.9713,-0.267728 3.1816,-0.150017 7.42947,-0.167329 7.42947,-0.167329 l 1.72908,0.446214 c 0,0 2.04025,-0.161807 3.0623,-0.208784 2.85537,-0.131242 8.57272,-0.203969 8.57272,-0.203969 l 1.59522,0.267728 C 36.20179,11.128274 37.97709,11.002233 40,10.999996 v -0.5 c -1.0219,-0.02696 -3.73697,0.134202 -5.70842,0.212744 l -1.4502,-0.278884 c 0,0 -1.50281,-0.06717 -4.57369,-0.08924 -2.32888,-0.01674 -7.18405,0.435059 -7.18405,0.435059 L 19.34341,10.50079 c 0,0 -1.91874,-0.05262 -3.88206,0.02231 -3.56595,0.136103 -7.47409,0.223108 -7.47409,0.223108 l -1.65099,0.04462 C 4.17102,10.686553 1.08222,10.454889 3e-5,10.499998 Z"
             id="path13052-4-7-3"
             sodipodi:nodetypes="cccsccaccccccsccscccc" />
          <path
             style="fill:#9c9989;fill-opacity:1;stroke:none;stroke-width:0.264583px;stroke-linecap:butt;stroke-linejoin:miter;stroke-opacity:1"
             d="M 0,3.7 C 1.67798,3.579677 3.9877,3.970687 6.11313,4.115137 l 1.82948,0.01116 5.28763,-0.178485 6.09083,-0.08924 1.96334,-0.01115 c 0,0 4.72884,-0.201008 7.0948,-0.21195 1.44305,-0.0067 4.32827,0.08924 4.32827,0.08924 L 34.44772,4.01475 C 36.27567,3.890826 37.94694,3.636337 40,3.700011 v -0.5 c -3.69242,-0.0019 -3.77935,0.212604 -5.58571,0.323905 L 32.70752,3.256192 c 0,0 -3.07844,-0.118194 -4.61832,-0.111553 -2.26945,0.0098 -6.80476,0.223107 -6.80476,0.223107 l -1.96334,0.03346 c 0,0 -4.13498,-0.123036 -6.20237,-0.08924 -1.73822,0.02841 -5.20956,0.245418 -5.20956,0.245418 L 6.12432,3.590844 C 0.0747,3.113994 1.22843,3.226428 3e-5,3.200011 Z"
             id="path13052-4-4-9-1"
             sodipodi:nodetypes="ccccccaccccccaccacccc" />
          <g
             id="g9490-4-6"
             style="fill:#cdba66;fill-opacity:1">
            <path
               style="fill:#cdba66;fill-opacity:1;stroke:none;stroke-width:0.268534px;stroke-linecap:butt;stroke-linejoin:miter;stroke-opacity:1"
               d="m 19.3,0 h 2.208646 l -0.441729,8.9054062 0.149872,9.0675508 c 0,0 -0.236815,0.502022 -0.907121,0.499863 -0.667114,-0.0021 -0.922898,-0.499863 -0.922898,-0.499863 z"
               id="path7682-6-8"
               sodipodi:nodetypes="ccccscc" />
            <path
               style="fill:#cdba66;fill-opacity:1;stroke:none;stroke-width:0.294422px;stroke-linecap:butt;stroke-linejoin:miter;stroke-opacity:1"
               d="m 34.400629,17.99258 c 0,0 -0.09336,-1.79261 -0.101459,-2.689816 C 34.253137,10.201065 34.6,0 34.6,0 h -2 c 0,0 0.133712,4.1643446 0.15515,6.2473146 0.04035,3.9201754 -0.04994,11.7610414 -0.04994,11.7610414 0,0 0.246705,0.435547 0.835879,0.425954 0.676846,-0.01102 0.859538,-0.44173 0.859538,-0.44173 z"
               id="path7678-9-7-5"
               sodipodi:nodetypes="caccacscc" />
            <path
               style="fill:#cdba66;fill-opacity:1;stroke:none;stroke-width:0.294422px;stroke-linecap:butt;stroke-linejoin:miter;stroke-opacity:1"
               d="m 6.2466993,18.039908 c 0,0 0.054077,-1.824584 0.054131,-2.737144 C 6.3011304,10.200857 6,0 6,0 h 2 c 0,0 -0.1400268,4.1642888 -0.15515,6.247314 -0.028387,3.909935 0.1209283,11.72949 0.1209283,11.72949 0,0 -0.3143637,0.49986 -0.859543,0.504834 -0.6060551,0.0055 -0.859537,-0.44173 -0.859538,-0.44173 z"
               id="path7678-8-9"
               sodipodi:nodetypes="caccacscc" />
          </g>
          <path
             style="fill:#f3e5a4;fill-opacity:1;stroke:none;stroke-width:0.264583px;stroke-linecap:butt;stroke-linejoin:miter;stroke-opacity:1"
             d="m 0,0 h 40 v 2.000004 c 0,0 -1.33349,-0.01453 -2,-5e-6 -2.9823,0.06499 -5.95755,0.374926 -8.94052,0.389899 C 27.49153,2.397798 25.9207,2.363188 24.35822,2.232142 23.25841,2.139902 22.1791,1.845533 21.0768,1.790413 18.59638,1.666381 16.11398,2.058343 13.63051,2.042827 11.13526,2.027237 8.64773,1.662375 6.15266,1.695754 4.76485,1.714324 3.387,1.949256 2,2 c -0.66622,0.02437 -2,7e-6 -2,7e-6 z"
             id="path4088-6-0-6"
             sodipodi:nodetypes="cccaaaaaaacc" />
        </g>
      </g>
    </g>
  </g>
</svg>
