<?xml version="1.0" encoding="UTF-8" standalone="no"?>
<!-- Created with Inkscape (http://www.inkscape.org/) -->

<svg
   width="210mm"
   height="297mm"
   viewBox="0 0 210 297"
   version="1.1"
   id="svg5"
   inkscape:version="1.1 (c68e22c387, 2021-05-23)"
   sodipodi:docname="way_right_to_left_special.svg"
   inkscape:export-filename="C:\game\Converyor-Defense\Game Files\Graphics\Sprites\way_right_to_left_special.png"
   inkscape:export-xdpi="162.55942"
   inkscape:export-ydpi="162.55942"
   xmlns:inkscape="http://www.inkscape.org/namespaces/inkscape"
   xmlns:sodipodi="http://sodipodi.sourceforge.net/DTD/sodipodi-0.dtd"
   xmlns="http://www.w3.org/2000/svg"
   xmlns:svg="http://www.w3.org/2000/svg">
  <sodipodi:namedview
     id="namedview7"
     pagecolor="#ffffff"
     bordercolor="#999999"
     borderopacity="1"
     inkscape:pageshadow="0"
     inkscape:pageopacity="0"
     inkscape:pagecheckerboard="0"
     inkscape:document-units="mm"
     showgrid="false"
     inkscape:zoom="2.0964012"
     inkscape:cx="-25.28142"
     inkscape:cy="66.542606"
     inkscape:window-width="1920"
     inkscape:window-height="1017"
     inkscape:window-x="1352"
     inkscape:window-y="-8"
     inkscape:window-maximized="1"
     inkscape:current-layer="layer1" />
  <defs
     id="defs2" />
  <g
     inkscape:label="Слой 1"
     inkscape:groupmode="layer"
     id="layer1">
    <g
       id="g1202">
      <g
         id="g1677">
        <rect
           style="fill:#ffe6d5;fill-opacity:1;fill-rule:evenodd;stroke:none;stroke-width:6.15765;stroke-linecap:square;paint-order:markers stroke fill"
           id="rect6634-85"
           width="10.414363"
           height="5"
           x="0"
           y="0" />
        <rect
           style="fill:#f4e3d7;fill-opacity:1;fill-rule:evenodd;stroke:none;stroke-width:7.41093;stroke-linecap:square;paint-order:markers stroke fill"
           id="rect6638-8"
           width="15.617539"
           height="5"
           x="10.414363"
           y="-5"
           transform="scale(1,-1)" />
        <rect
           style="fill:#ffe6d5;fill-opacity:1;fill-rule:evenodd;stroke:none;stroke-width:7.18063;stroke-linecap:square;paint-order:markers stroke fill"
           id="rect6640-3"
           width="3.5537338"
           height="5"
           x="36.446266"
           y="4.4408921e-16" />
        <rect
           style="fill:#f4eed7;fill-opacity:1;fill-rule:evenodd;stroke:none;stroke-width:4.58491;stroke-linecap:square;paint-order:markers stroke fill"
           id="rect6634-2-7"
           width="5.773829"
           height="5"
           x="0"
           y="5" />
        <rect
           style="fill:#fff6d5;fill-opacity:1;fill-rule:evenodd;stroke:none;stroke-width:8.09534;stroke-linecap:square;paint-order:markers stroke fill"
           id="rect6634-6-96"
           width="18"
           height="5"
           x="5.773829"
           y="5" />
        <rect
           style="fill:#fff6d5;fill-opacity:1;fill-rule:evenodd;stroke:none;stroke-width:7.21459;stroke-linecap:square;paint-order:markers stroke fill"
           id="rect6634-3-4"
           width="14.296385"
           height="5"
           x="17.855114"
           y="10" />
        <rect
           style="fill:#f4eed7;fill-opacity:1;fill-rule:evenodd;stroke:none;stroke-width:8.09534;stroke-linecap:square;paint-order:markers stroke fill"
           id="rect6634-5-12"
           width="18"
           height="5"
           x="8.8813992"
           y="15" />
        <rect
           style="fill:#ffe6d5;fill-opacity:1;fill-rule:evenodd;stroke:none;stroke-width:5.91543;stroke-linecap:square;paint-order:markers stroke fill"
           id="rect6634-5-4-24"
           width="9.6111517"
           height="5"
           x="10.932331"
           y="20" />
        <rect
           style="fill:#f4e3d7;fill-opacity:1;fill-rule:evenodd;stroke:none;stroke-width:5.68643;stroke-linecap:square;paint-order:markers stroke fill"
           id="rect6634-26-97"
           width="8.8813992"
           height="5"
           x="0"
           y="15" />
        <rect
           style="fill:#f4e3d7;fill-opacity:1;fill-rule:evenodd;stroke:none;stroke-width:4.5026;stroke-linecap:square;paint-order:markers stroke fill"
           id="rect6634-72-9"
           width="5.5683842"
           height="5"
           x="34.431618"
           y="35" />
        <rect
           style="fill:#fff6d5;fill-opacity:1;fill-rule:evenodd;stroke:none;stroke-width:4.01721;stroke-linecap:square;paint-order:markers stroke fill"
           id="rect6634-69-10"
           width="4.4325271"
           height="5"
           x="35.567474"
           y="30" />
        <rect
           style="fill:#ffe6d5;fill-opacity:1;fill-rule:evenodd;stroke:none;stroke-width:2.63596;stroke-linecap:square;paint-order:markers stroke fill"
           id="rect6634-8-5"
           width="1.9084518"
           height="5"
           x="0"
           y="24.999998" />
        <rect
           style="fill:#f4eed7;fill-opacity:1;fill-rule:evenodd;stroke:none;stroke-width:6.30892;stroke-linecap:square;paint-order:markers stroke fill"
           id="rect6634-4-2"
           width="10.932331"
           height="5"
           x="0"
           y="20" />
        <rect
           style="fill:#ffe6d5;fill-opacity:1;fill-rule:evenodd;stroke:none;stroke-width:3.10575;stroke-linecap:square;paint-order:markers stroke fill"
           id="rect6634-74-1"
           width="2.6493244"
           height="5"
           x="37.350674"
           y="25" />
        <rect
           style="fill:#f4eed7;fill-opacity:1;fill-rule:evenodd;stroke:none;stroke-width:3.81618;stroke-linecap:square;paint-order:markers stroke fill"
           id="rect6634-61-8"
           width="4"
           height="5"
           x="36"
           y="20" />
        <rect
           style="fill:#f4eed7;fill-opacity:1;fill-rule:evenodd;stroke:none;stroke-width:5.76186;stroke-linecap:square;paint-order:markers stroke fill"
           id="rect6634-1-9"
           width="9.1185999"
           height="5"
           x="26.881399"
           y="15" />
        <rect
           style="fill:#f4e3d7;fill-opacity:1;fill-rule:evenodd;stroke:none;stroke-width:5.34554;stroke-linecap:square;paint-order:markers stroke fill"
           id="rect6634-65-2"
           width="7.8484993"
           height="5"
           x="32.151501"
           y="10" />
        <rect
           style="fill:#f4e3d7;fill-opacity:1;fill-rule:evenodd;stroke:none;stroke-width:5.18358;stroke-linecap:square;paint-order:markers stroke fill"
           id="rect6634-266-3"
           width="7.3801079"
           height="5"
           x="23.773829"
           y="5" />
        <rect
           style="fill:#f4e3d7;fill-opacity:1;fill-rule:evenodd;stroke:none;stroke-width:8.09534;stroke-linecap:square;paint-order:markers stroke fill"
           id="rect6634-22-2"
           width="18"
           height="5"
           x="0"
           y="10" />
        <rect
           style="fill:#fff6d5;fill-opacity:1;fill-rule:evenodd;stroke:none;stroke-width:3.90116;stroke-linecap:square;paint-order:markers stroke fill"
           id="rect6634-99-8"
           width="4.1801381"
           height="5"
           x="2.7755576e-17"
           y="29.999998" />
        <rect
           style="fill:#f4e3d7;fill-opacity:1;fill-rule:evenodd;stroke:none;stroke-width:8.09534;stroke-linecap:square;paint-order:markers stroke fill"
           id="rect6634-44-2"
           width="18"
           height="5"
           x="0"
           y="35" />
        <rect
           style="fill:#fff6d5;fill-opacity:1;fill-rule:evenodd;stroke:none;stroke-width:6.15765;stroke-linecap:square;paint-order:markers stroke fill"
           id="rect6634-656-9"
           width="10.414363"
           height="5"
           x="26.031902"
           y="0" />
        <rect
           style="fill:#f4eed7;fill-opacity:1;fill-rule:evenodd;stroke:none;stroke-width:5.69153;stroke-linecap:square;paint-order:markers stroke fill"
           id="rect6634-2-5-33"
           width="8.8973522"
           height="5"
           x="31.102648"
           y="5" />
        <rect
           style="fill:#f4e3d7;fill-opacity:1;fill-rule:evenodd;stroke:none;stroke-width:3.81618;stroke-linecap:square;paint-order:markers stroke fill"
           id="rect6634-26-9-2"
           width="4.0000019"
           height="5"
           x="36"
           y="15" />
        <rect
           style="fill:#fff6d5;fill-opacity:1;fill-rule:evenodd;stroke:none;stroke-width:7.80932;stroke-linecap:square;paint-order:markers stroke fill"
           id="rect6634-22-9-3"
           width="16.750536"
           height="5"
           x="17.68108"
           y="35" />
        <rect
           style="fill:#f4e3d7;fill-opacity:1;fill-rule:evenodd;stroke:none;stroke-width:5.80455;stroke-linecap:square;paint-order:markers stroke fill"
           id="rect6634-5-7-2"
           width="9.2542191"
           height="5"
           x="20.543484"
           y="20" />
        <rect
           style="fill:#fff6d5;fill-opacity:1;fill-rule:evenodd;stroke:none;stroke-width:5.34368;stroke-linecap:square;paint-order:markers stroke fill"
           id="rect6634-5-1-30"
           width="7.8430138"
           height="5"
           x="29.797703"
           y="20" />
        <rect
           style="fill:#f4eed7;fill-opacity:1;fill-rule:evenodd;stroke:none;stroke-width:7.27066;stroke-linecap:square;paint-order:markers stroke fill"
           id="rect6634-5-4-8-93"
           width="14.519479"
           height="5"
           x="1.9084518"
           y="24.999998" />
        <rect
           style="fill:#f4e3d7;fill-opacity:1;fill-rule:evenodd;stroke:none;stroke-width:6.02428;stroke-linecap:square;paint-order:markers stroke fill"
           id="rect6634-5-4-8-9-85"
           width="9.9681225"
           height="5"
           x="16.427931"
           y="24.999998" />
        <rect
           style="fill:#f4eed7;fill-opacity:1;fill-rule:evenodd;stroke:none;stroke-width:6.41605;stroke-linecap:square;paint-order:markers stroke fill"
           id="rect6634-5-4-8-9-2-0"
           width="11.306777"
           height="5"
           x="26.396053"
           y="24.999998" />
        <rect
           style="fill:#ffe6d5;fill-opacity:1;fill-rule:evenodd;stroke:none;stroke-width:8.09534;stroke-linecap:square;paint-order:markers stroke fill"
           id="rect6634-5-0-1"
           width="18"
           height="5"
           x="4.1801381"
           y="29.999998" />
        <rect
           style="fill:#f4eed7;fill-opacity:1;fill-rule:evenodd;stroke:none;stroke-width:6.99286;stroke-linecap:square;paint-order:markers stroke fill"
           id="rect6634-4-3-6"
           width="13.431129"
           height="5"
           x="22.180138"
           y="29.999998" />
        <rect
           style="fill:#f3dfd1;fill-opacity:0.33677;fill-rule:evenodd;stroke:none;stroke-width:10;stroke-linecap:square;stroke-opacity:1;paint-order:markers stroke fill"
           id="rect20326"
           width="40"
           height="40"
           x="0"
           y="0" />
        <path
           style="fill:#fff6d5;fill-opacity:0.216495;stroke:none;stroke-width:0.264583px;stroke-linecap:butt;stroke-linejoin:miter;stroke-opacity:1"
           d="m 0,29.999998 c 0,0 8.4627011,-0.19964 12.309291,-2.740787 3.488796,-2.30478 6.122552,5.887681 9.870846,7.740787 1.978918,0.97835 4.243142,2.074003 6.411404,1.659361 3.694882,-0.706581 5.356192,-6.434311 9.11129,-6.659361 0.806817,-0.04835 2.297168,2e-6 2.297168,2e-6 v 9.999999 H 0 Z"
           id="path29145"
           sodipodi:nodetypes="csaascccc" />
        <path
           style="fill:#e3dedb;fill-opacity:0.243986;stroke:none;stroke-width:0.264583px;stroke-linecap:butt;stroke-linejoin:miter;stroke-opacity:1"
           d="m 0,25 c 0,0 1.4522059,-0.144026 2.1133258,0.101543 4.5536079,1.691417 6.8879413,10.548146 11.4829392,8.972637 3.951403,-1.354836 -1.032152,-11.325238 3.062496,-12.151692 4.529833,-0.91429 3.825475,12.077343 8.337007,11.076648 2.690527,-0.596782 -0.03095,-5.954178 1.712622,-8.088429 0.896705,-1.097627 2.503276,-1.455011 3.900525,-1.692835 1.736337,-0.29554 5.197647,4.902625 6.497681,3.840002 0.580836,-0.474764 1.571049,-1.955154 2.318977,-2.013253 L 39.999999,25 40,5 c 0,0 -0.969826,-0.00846 -1.330645,0.2641138 -3.584852,2.7080855 -2.464279,9.4131492 -6.13784,11.9996212 -1.704598,1.200169 -4.655698,2.202023 -6.202256,0.80409 C 22.807953,14.884918 31.018245,5.8660146 26.728776,3.8335419 23.012515,2.0726718 21.433752,12.731748 17.404082,11.911374 13.590876,11.135069 16.158379,1.6054978 12.271092,1.4260947 7.6767062,1.2140581 9.6494907,13.801432 5.0887655,13.207191 2.3380294,12.848783 4.8736929,6.9798623 2.7222212,5.2288125 2.0159654,4.6540017 0,5 0,5 Z"
           id="path30016"
           sodipodi:nodetypes="caaaaasssccaaaaaaaacc" />
        <path
           style="fill:#fff6d5;fill-opacity:0.164948;stroke:none;stroke-width:0.264583px;stroke-linecap:butt;stroke-linejoin:miter;stroke-opacity:1"
           d="M 3.8656683e-4,2.5 C 6.3751656,2.5291344 5.5467445,2.1011501 8.3300466,2.0181189 10.916509,1.9409598 13.560148,1.608328 16.091879,2.1431952 c 3.642799,0.7695976 6.652946,3.5410849 10.286617,4.3526883 2.609189,0.5827788 5.594814,1.451757 8.014278,0.314352 1.519882,-0.714506 1.601757,-3.1695122 3.059951,-4.0027177 C 38.195306,2.3832102 40,2.5 40,2.5 L 39.999999,0 H 0 Z"
           id="path32003"
           sodipodi:nodetypes="csaaaacccc" />
      </g>
      <path
         id="path4088-6-5"
         style="fill:#000000;fill-opacity:0.20392157;stroke:none;stroke-width:0.265173px;stroke-linecap:butt;stroke-linejoin:miter;stroke-opacity:1"
         d="m 0,0 2.08e-4,23.867277 c 1.6263762,0.100359 3.251402,0.272965 4.8801142,0.283187 2.4834731,0.01559 4.9661509,-0.378319 7.4465738,-0.253732 1.102295,0.05537 2.181642,0.351251 3.281453,0.443901 1.562483,0.131631 3.133055,0.16603 4.701005,0.15813 2.982968,-0.01504 5.958243,-0.326428 8.940539,-0.391708 0.666509,-0.01459 1.999879,0 1.999879,0 V 0 Z"
         sodipodi:nodetypes="ccssscsccc" />
      <path
         style="fill:#f3e5a4;fill-opacity:1;stroke:none;stroke-width:0.264583px;stroke-linecap:butt;stroke-linejoin:miter;stroke-opacity:1"
         d="m 0,40 h 39.999992 v -2.1 h -2 c -2.35468,0 -4.694849,-0.36543 -7.047399,-0.38455 -2.199659,-0.0179 -4.395508,0.1907 -6.594378,0.25241 -1.17767,0.0331 -2.355779,0.0499 -3.53384,0.0631 -2.324209,0.026 -4.649058,0.0753 -6.973008,0.0316 -2.494389,-0.047 -4.9834689,-0.36338 -7.4778484,-0.31552 -1.4623097,0.0281 -4.373519,0.353 -4.373519,0.353 H 0 Z"
         id="path4088"
         sodipodi:nodetypes="cccsaaaaaccc" />
      <path
         id="path4088-6-5-2"
         style="fill:#000000;fill-opacity:0.20392157;stroke:none;stroke-width:0.265173px;stroke-linecap:butt;stroke-linejoin:miter;stroke-opacity:1"
         d="m 31.249772,0 v 24.107055 c 0,0 0.29427,0.04908 0.645726,-0.172765 0.117404,-0.07411 0.105085,-0.340236 0.105085,-0.340236 l 1.690788,-1.051867 -0.0039,-0.125189 1.884302,-1.151921 0.01132,-0.101133 1.674005,-1.018666 -0.0078,-0.128112 1.545766,-0.912739 -0.0078,-0.108392 L 40,18.25 40.000142,0 Z"
         sodipodi:nodetypes="ccscccccccccccc" />
      <path
         style="fill:#d6cc9b;fill-opacity:1;stroke:none;stroke-width:0.264509px;stroke-linecap:butt;stroke-linejoin:miter;stroke-opacity:1"
         d="m 0,0 v 17.799999 c 5.02048,0.01519 6.265515,0.239909 6.265515,0.239909 l 1.718125,-0.0631 c -0.0547,-0.0014 1.50707,-0.269428 5.27099,-0.291507 4.42728,-0.02597 6.14363,0.287667 6.14363,0.287667 h 1.829 c 0,0 0.90998,-0.328225 5.61816,-0.350172 4.50084,-0.02098 5.86386,0.385559 5.86386,0.385559 l 1.69447,-0.01578 C 34.24381,17.912555 37.31873,17.766108 40,17.799999 V 0 Z"
         id="path10050"
         sodipodi:nodetypes="ccccsccsccccc" />
      <path
         style="fill:#9c9989;fill-opacity:1;stroke:none;stroke-width:0.264583px;stroke-linecap:butt;stroke-linejoin:miter;stroke-opacity:1"
         d="m 3e-6,14.499999 c 2.844121,-0.04663 4.265979,0.281018 6.38086,0.426293 h 1.56175 c 0,0 3.758075,-0.401654 5.644603,-0.490835 1.920354,-0.09078 5.767323,-0.04462 5.767323,-0.04462 l 1.807168,0.267728 c 0,0 3.949641,-0.128991 5.907706,-0.194261 3.976556,-0.132553 5.63807,0.0604 5.63807,0.0604 l 1.584067,0.33466 c 1.903545,-0.123429 3.831636,-0.369582 5.708453,-0.35937 v -0.5 C 37.32,14.040884 36.193873,14.141538 34.29158,14.21234 l -1.450197,-0.178486 c 0,0 -4.144853,-0.140341 -6.21815,-0.149636 -4.191465,-0.01879 -5.472654,0.261193 -5.472654,0.261193 l -1.807168,-0.200797 c 0,0 -2.687588,-0.144843 -5.666913,-0.02231 -3.687896,0.151673 -5.689235,0.423904 -5.689235,0.423904 l -1.65099,0.04462 C 4.301672,14.24118 2.785425,13.961943 3.3e-5,13.999994 Z"
         id="path13052-8"
         sodipodi:nodetypes="cccaccsccccccsccscccc" />
      <path
         style="fill:#9c9989;fill-opacity:1;stroke:none;stroke-width:0.264583px;stroke-linecap:butt;stroke-linejoin:miter;stroke-opacity:1"
         d="m 3e-6,7.4999995 c 2.253983,-0.040824 4.120089,0.1338384 6.180063,0.2007971 l 1.695617,0.1143409 c 0,0 7.544331,-0.1465946 8.759946,-0.1619171 0.895632,-0.011289 2.685444,-0.094655 2.685444,-0.094655 h 1.8741 c 0,0 6.038174,-0.1761861 9.058139,-0.178485 0.818192,-6.229e-4 2.454171,0.04462 2.454171,0.04462 l 1.673309,0.3011944 c 1.871044,-0.076166 3.471856,-0.2681466 5.619211,-0.2258944 v -0.5 c -2.15048,-0.044261 -3.747667,0.1486034 -5.619181,0.2238992 L 32.841383,6.9338604 c 0,0 -5.131457,0.059538 -7.697187,0.089243 -1.286584,0.014895 -3.859753,0.044621 -3.859753,0.044621 l -1.8741,0.04462 c 0,0 -4.269014,0.00953 -6.403166,0.044621 -1.72199,0.028313 -5.164934,0.133866 -5.164934,0.133866 l -1.65099,-0.02231 C 4.127801,7.1789694 2.616155,7.0045241 3.3e-5,6.9999984 Z"
         id="path13052-81"
         sodipodi:nodetypes="cccsccaccccccaccacccc" />
      <path
         style="fill:#9c9989;fill-opacity:1;stroke:none;stroke-width:0.264583px;stroke-linecap:butt;stroke-linejoin:miter;stroke-opacity:1"
         d="m 3e-6,10.999999 c 2.228688,0.007 4.253906,0.217529 6.38086,0.326293 h 1.56175 c 0,0 2.646001,-0.205239 3.971301,-0.267728 3.181597,-0.150017 7.42947,-0.167329 7.42947,-0.167329 l 1.72908,0.446214 c 0,0 2.040245,-0.161807 3.062303,-0.208784 2.855366,-0.131242 8.572716,-0.203969 8.572716,-0.203969 l 1.595222,0.267728 c 1.899089,-0.06415 3.674386,-0.190191 5.697298,-0.192428 v -0.5 c -1.021902,-0.02696 -3.736971,0.134202 -5.708423,0.212744 l -1.450197,-0.278884 c 0,0 -1.502813,-0.06717 -4.573689,-0.08924 -2.328878,-0.01674 -7.184047,0.435059 -7.184047,0.435059 L 19.343411,10.50079 c 0,0 -1.918739,-0.05262 -3.882057,0.02231 -3.565949,0.136103 -7.474091,0.223108 -7.474091,0.223108 l -1.65099,0.04462 C 4.171021,10.686553 1.082224,10.454889 3.3e-5,10.499998 Z"
         id="path13052-4"
         sodipodi:nodetypes="cccsccaccccccsccscccc" />
      <path
         style="fill:#9c9989;fill-opacity:1;stroke:none;stroke-width:0.264583px;stroke-linecap:butt;stroke-linejoin:miter;stroke-opacity:1"
         d="m 3e-6,3.7000001 c 1.677981,-0.120323 3.9877,0.2706878 6.113131,0.4151377 l 1.829479,0.01116 5.28763,-0.178485 6.09083,-0.08924 1.96334,-0.01115 c 0,0 4.72884,-0.2010079 7.0948,-0.2119508 1.44305,-0.0067 4.32827,0.08924 4.32827,0.08924 l 1.740241,0.2900389 c 1.827947,-0.123924 3.499216,-0.378413 5.552279,-0.314739 v -0.5 c -3.69242,-0.0019 -3.779346,0.2126032 -5.585711,0.3239041 L 32.707523,3.256192 c 0,0 -3.07844,-0.118194 -4.61832,-0.111553 -2.26945,0.0098 -6.80476,0.223107 -6.80476,0.223107 l -1.96334,0.03346 c 0,0 -4.13498,-0.1230351 -6.20237,-0.08924 -1.73822,0.02841 -5.20956,0.245418 -5.20956,0.245418 L 6.124321,3.590844 C 0.074704,3.1139949 1.228431,3.2264288 3.3e-5,3.200011 Z"
         id="path13052-4-4"
         sodipodi:nodetypes="ccccccaccccccaccacccc" />
      <g
         id="g9490"
         style="fill:#cdba66;fill-opacity:1">
        <path
           style="fill:#cdba66;fill-opacity:1;stroke:none;stroke-width:0.268534px;stroke-linecap:butt;stroke-linejoin:miter;stroke-opacity:1"
           d="m 19.3,0 h 2.208646 l -0.441729,8.9054062 0.149872,9.0675508 c 0,0 -0.236815,0.502022 -0.907121,0.499863 -0.667114,-0.0021 -0.922898,-0.499863 -0.922898,-0.499863 z"
           id="path7682"
           sodipodi:nodetypes="ccccscc" />
        <path
           style="fill:#cdba66;fill-opacity:1;stroke:none;stroke-width:0.294422px;stroke-linecap:butt;stroke-linejoin:miter;stroke-opacity:1"
           d="m 34.400629,17.99258 c 0,0 -0.09336,-1.79261 -0.101459,-2.689816 C 34.253137,10.201065 34.6,0 34.6,0 h -2 c 0,0 0.133712,4.1643446 0.15515,6.2473146 0.04035,3.9201754 -0.04994,11.7610414 -0.04994,11.7610414 0,0 0.246705,0.435547 0.835879,0.425954 0.676846,-0.01102 0.859538,-0.44173 0.859538,-0.44173 z"
           id="path7678-9"
           sodipodi:nodetypes="caccacscc" />
        <path
           style="fill:#cdba66;fill-opacity:1;stroke:none;stroke-width:0.294422px;stroke-linecap:butt;stroke-linejoin:miter;stroke-opacity:1"
           d="m 6.2466993,18.039908 c 0,0 0.054077,-1.824584 0.054131,-2.737144 C 6.3011304,10.200857 6,0 6,0 h 2 c 0,0 -0.1400268,4.1642888 -0.15515,6.247314 -0.028387,3.909935 0.1209283,11.72949 0.1209283,11.72949 0,0 -0.3143637,0.49986 -0.859543,0.504834 -0.6060551,0.0055 -0.859537,-0.44173 -0.859538,-0.44173 z"
           id="path7678"
           sodipodi:nodetypes="caccacscc" />
      </g>
      <path
         style="fill:#f3e5a4;fill-opacity:1;stroke:none;stroke-width:0.264583px;stroke-linecap:butt;stroke-linejoin:miter;stroke-opacity:1"
         d="m 4e-6,0 h 40 v 2.000004 c 0,0 -1.333492,-0.01453 -2,-4.1e-6 -2.982297,0.064995 -5.957549,0.3749254 -8.940517,0.3898986 -1.56795,0.00787 -3.138779,-0.026706 -4.701263,-0.1577565 C 23.258413,2.139898 22.179099,1.8455336 21.076804,1.7904139 18.596381,1.6663817 16.113987,2.0583433 13.630513,2.0428273 11.135261,2.0272373 8.647738,1.6623753 6.152661,1.6957545 4.764856,1.7143205 3.387005,1.9492561 2.000004,2 c -0.666221,0.024374 -2,7e-6 -2,7e-6 z"
         id="path4088-6"
         sodipodi:nodetypes="cccaaaaaaacc" />
    </g>
  </g>
</svg>
