<?xml version="1.0" encoding="UTF-8" standalone="no"?>
<!-- Created with Inkscape (http://www.inkscape.org/) -->

<svg
   width="210mm"
   height="297mm"
   viewBox="0 0 210 297"
   version="1.1"
   id="svg5"
   inkscape:version="1.1 (c68e22c387, 2021-05-23)"
   sodipodi:docname="way_up_to_down.svg"
   inkscape:export-filename="C:\game\Converyor-Defense\Game Files\Graphics\Sprites\way_up_to_down.png"
   inkscape:export-xdpi="162.55942"
   inkscape:export-ydpi="162.55942"
   xmlns:inkscape="http://www.inkscape.org/namespaces/inkscape"
   xmlns:sodipodi="http://sodipodi.sourceforge.net/DTD/sodipodi-0.dtd"
   xmlns="http://www.w3.org/2000/svg"
   xmlns:svg="http://www.w3.org/2000/svg">
  <sodipodi:namedview
     id="namedview7"
     pagecolor="#ffffff"
     bordercolor="#999999"
     borderopacity="1"
     inkscape:pageshadow="0"
     inkscape:pageopacity="0"
     inkscape:pagecheckerboard="0"
     inkscape:document-units="mm"
     showgrid="false"
     inkscape:zoom="1.4823793"
     inkscape:cx="4.7221383"
     inkscape:cy="116.36698"
     inkscape:window-width="1920"
     inkscape:window-height="1017"
     inkscape:window-x="1352"
     inkscape:window-y="-8"
     inkscape:window-maximized="1"
     inkscape:current-layer="layer1" />
  <defs
     id="defs2" />
  <g
     inkscape:label="Слой 1"
     inkscape:groupmode="layer"
     id="layer1">
    <g
       id="g1144">
      <g
         id="g1677">
        <rect
           style="fill:#ffe6d5;fill-opacity:1;fill-rule:evenodd;stroke:none;stroke-width:6.15765;stroke-linecap:square;paint-order:markers stroke fill"
           id="rect6634-85"
           width="10.414363"
           height="5"
           x="0"
           y="0" />
        <rect
           style="fill:#f4e3d7;fill-opacity:1;fill-rule:evenodd;stroke:none;stroke-width:7.41093;stroke-linecap:square;paint-order:markers stroke fill"
           id="rect6638-8"
           width="15.617539"
           height="5"
           x="10.414363"
           y="-5"
           transform="scale(1,-1)" />
        <rect
           style="fill:#ffe6d5;fill-opacity:1;fill-rule:evenodd;stroke:none;stroke-width:7.18063;stroke-linecap:square;paint-order:markers stroke fill"
           id="rect6640-3"
           width="3.5537338"
           height="5"
           x="36.446266"
           y="4.4408921e-16" />
        <rect
           style="fill:#f4eed7;fill-opacity:1;fill-rule:evenodd;stroke:none;stroke-width:4.58491;stroke-linecap:square;paint-order:markers stroke fill"
           id="rect6634-2-7"
           width="5.773829"
           height="5"
           x="0"
           y="5" />
        <rect
           style="fill:#fff6d5;fill-opacity:1;fill-rule:evenodd;stroke:none;stroke-width:8.09534;stroke-linecap:square;paint-order:markers stroke fill"
           id="rect6634-6-96"
           width="18"
           height="5"
           x="5.773829"
           y="5" />
        <rect
           style="fill:#fff6d5;fill-opacity:1;fill-rule:evenodd;stroke:none;stroke-width:7.21459;stroke-linecap:square;paint-order:markers stroke fill"
           id="rect6634-3-4"
           width="14.296385"
           height="5"
           x="17.855114"
           y="10" />
        <rect
           style="fill:#f4eed7;fill-opacity:1;fill-rule:evenodd;stroke:none;stroke-width:8.09534;stroke-linecap:square;paint-order:markers stroke fill"
           id="rect6634-5-12"
           width="18"
           height="5"
           x="8.8813992"
           y="15" />
        <rect
           style="fill:#ffe6d5;fill-opacity:1;fill-rule:evenodd;stroke:none;stroke-width:5.91543;stroke-linecap:square;paint-order:markers stroke fill"
           id="rect6634-5-4-24"
           width="9.6111517"
           height="5"
           x="10.932331"
           y="20" />
        <rect
           style="fill:#f4e3d7;fill-opacity:1;fill-rule:evenodd;stroke:none;stroke-width:5.68643;stroke-linecap:square;paint-order:markers stroke fill"
           id="rect6634-26-97"
           width="8.8813992"
           height="5"
           x="0"
           y="15" />
        <rect
           style="fill:#f4e3d7;fill-opacity:1;fill-rule:evenodd;stroke:none;stroke-width:4.5026;stroke-linecap:square;paint-order:markers stroke fill"
           id="rect6634-72-9"
           width="5.5683842"
           height="5"
           x="34.431618"
           y="35" />
        <rect
           style="fill:#fff6d5;fill-opacity:1;fill-rule:evenodd;stroke:none;stroke-width:4.01721;stroke-linecap:square;paint-order:markers stroke fill"
           id="rect6634-69-10"
           width="4.4325271"
           height="5"
           x="35.567474"
           y="30" />
        <rect
           style="fill:#ffe6d5;fill-opacity:1;fill-rule:evenodd;stroke:none;stroke-width:2.63596;stroke-linecap:square;paint-order:markers stroke fill"
           id="rect6634-8-5"
           width="1.9084518"
           height="5"
           x="0"
           y="24.999998" />
        <rect
           style="fill:#f4eed7;fill-opacity:1;fill-rule:evenodd;stroke:none;stroke-width:6.30892;stroke-linecap:square;paint-order:markers stroke fill"
           id="rect6634-4-2"
           width="10.932331"
           height="5"
           x="0"
           y="20" />
        <rect
           style="fill:#ffe6d5;fill-opacity:1;fill-rule:evenodd;stroke:none;stroke-width:3.10575;stroke-linecap:square;paint-order:markers stroke fill"
           id="rect6634-74-1"
           width="2.6493244"
           height="5"
           x="37.350674"
           y="25" />
        <rect
           style="fill:#f4eed7;fill-opacity:1;fill-rule:evenodd;stroke:none;stroke-width:3.81618;stroke-linecap:square;paint-order:markers stroke fill"
           id="rect6634-61-8"
           width="4"
           height="5"
           x="36"
           y="20" />
        <rect
           style="fill:#f4eed7;fill-opacity:1;fill-rule:evenodd;stroke:none;stroke-width:5.76186;stroke-linecap:square;paint-order:markers stroke fill"
           id="rect6634-1-9"
           width="9.1185999"
           height="5"
           x="26.881399"
           y="15" />
        <rect
           style="fill:#f4e3d7;fill-opacity:1;fill-rule:evenodd;stroke:none;stroke-width:5.34554;stroke-linecap:square;paint-order:markers stroke fill"
           id="rect6634-65-2"
           width="7.8484993"
           height="5"
           x="32.151501"
           y="10" />
        <rect
           style="fill:#f4e3d7;fill-opacity:1;fill-rule:evenodd;stroke:none;stroke-width:5.18358;stroke-linecap:square;paint-order:markers stroke fill"
           id="rect6634-266-3"
           width="7.3801079"
           height="5"
           x="23.773829"
           y="5" />
        <rect
           style="fill:#f4e3d7;fill-opacity:1;fill-rule:evenodd;stroke:none;stroke-width:8.09534;stroke-linecap:square;paint-order:markers stroke fill"
           id="rect6634-22-2"
           width="18"
           height="5"
           x="0"
           y="10" />
        <rect
           style="fill:#fff6d5;fill-opacity:1;fill-rule:evenodd;stroke:none;stroke-width:3.90116;stroke-linecap:square;paint-order:markers stroke fill"
           id="rect6634-99-8"
           width="4.1801381"
           height="5"
           x="2.7755576e-17"
           y="29.999998" />
        <rect
           style="fill:#f4e3d7;fill-opacity:1;fill-rule:evenodd;stroke:none;stroke-width:8.09534;stroke-linecap:square;paint-order:markers stroke fill"
           id="rect6634-44-2"
           width="18"
           height="5"
           x="0"
           y="35" />
        <rect
           style="fill:#fff6d5;fill-opacity:1;fill-rule:evenodd;stroke:none;stroke-width:6.15765;stroke-linecap:square;paint-order:markers stroke fill"
           id="rect6634-656-9"
           width="10.414363"
           height="5"
           x="26.031902"
           y="0" />
        <rect
           style="fill:#f4eed7;fill-opacity:1;fill-rule:evenodd;stroke:none;stroke-width:5.69153;stroke-linecap:square;paint-order:markers stroke fill"
           id="rect6634-2-5-33"
           width="8.8973522"
           height="5"
           x="31.102648"
           y="5" />
        <rect
           style="fill:#f4e3d7;fill-opacity:1;fill-rule:evenodd;stroke:none;stroke-width:3.81618;stroke-linecap:square;paint-order:markers stroke fill"
           id="rect6634-26-9-2"
           width="4.0000019"
           height="5"
           x="36"
           y="15" />
        <rect
           style="fill:#fff6d5;fill-opacity:1;fill-rule:evenodd;stroke:none;stroke-width:7.80932;stroke-linecap:square;paint-order:markers stroke fill"
           id="rect6634-22-9-3"
           width="16.750536"
           height="5"
           x="17.68108"
           y="35" />
        <rect
           style="fill:#f4e3d7;fill-opacity:1;fill-rule:evenodd;stroke:none;stroke-width:5.80455;stroke-linecap:square;paint-order:markers stroke fill"
           id="rect6634-5-7-2"
           width="9.2542191"
           height="5"
           x="20.543484"
           y="20" />
        <rect
           style="fill:#fff6d5;fill-opacity:1;fill-rule:evenodd;stroke:none;stroke-width:5.34368;stroke-linecap:square;paint-order:markers stroke fill"
           id="rect6634-5-1-30"
           width="7.8430138"
           height="5"
           x="29.797703"
           y="20" />
        <rect
           style="fill:#f4eed7;fill-opacity:1;fill-rule:evenodd;stroke:none;stroke-width:7.27066;stroke-linecap:square;paint-order:markers stroke fill"
           id="rect6634-5-4-8-93"
           width="14.519479"
           height="5"
           x="1.9084518"
           y="24.999998" />
        <rect
           style="fill:#f4e3d7;fill-opacity:1;fill-rule:evenodd;stroke:none;stroke-width:6.02428;stroke-linecap:square;paint-order:markers stroke fill"
           id="rect6634-5-4-8-9-85"
           width="9.9681225"
           height="5"
           x="16.427931"
           y="24.999998" />
        <rect
           style="fill:#f4eed7;fill-opacity:1;fill-rule:evenodd;stroke:none;stroke-width:6.41605;stroke-linecap:square;paint-order:markers stroke fill"
           id="rect6634-5-4-8-9-2-0"
           width="11.306777"
           height="5"
           x="26.396053"
           y="24.999998" />
        <rect
           style="fill:#ffe6d5;fill-opacity:1;fill-rule:evenodd;stroke:none;stroke-width:8.09534;stroke-linecap:square;paint-order:markers stroke fill"
           id="rect6634-5-0-1"
           width="18"
           height="5"
           x="4.1801381"
           y="29.999998" />
        <rect
           style="fill:#f4eed7;fill-opacity:1;fill-rule:evenodd;stroke:none;stroke-width:6.99286;stroke-linecap:square;paint-order:markers stroke fill"
           id="rect6634-4-3-6"
           width="13.431129"
           height="5"
           x="22.180138"
           y="29.999998" />
        <rect
           style="fill:#f3dfd1;fill-opacity:0.33677;fill-rule:evenodd;stroke:none;stroke-width:10;stroke-linecap:square;stroke-opacity:1;paint-order:markers stroke fill"
           id="rect20326"
           width="40"
           height="40"
           x="0"
           y="0" />
        <path
           style="fill:#fff6d5;fill-opacity:0.216495;stroke:none;stroke-width:0.264583px;stroke-linecap:butt;stroke-linejoin:miter;stroke-opacity:1"
           d="m 0,29.999998 c 0,0 8.4627011,-0.19964 12.309291,-2.740787 3.488796,-2.30478 6.122552,5.887681 9.870846,7.740787 1.978918,0.97835 4.243142,2.074003 6.411404,1.659361 3.694882,-0.706581 5.356192,-6.434311 9.11129,-6.659361 0.806817,-0.04835 2.297168,2e-6 2.297168,2e-6 v 9.999999 H 0 Z"
           id="path29145"
           sodipodi:nodetypes="csaascccc" />
        <path
           style="fill:#e3dedb;fill-opacity:0.243986;stroke:none;stroke-width:0.264583px;stroke-linecap:butt;stroke-linejoin:miter;stroke-opacity:1"
           d="m 0,25 c 0,0 1.4522059,-0.144026 2.1133258,0.101543 4.5536079,1.691417 6.8879413,10.548146 11.4829392,8.972637 3.951403,-1.354836 -1.032152,-11.325238 3.062496,-12.151692 4.529833,-0.91429 3.825475,12.077343 8.337007,11.076648 2.690527,-0.596782 -0.03095,-5.954178 1.712622,-8.088429 0.896705,-1.097627 2.503276,-1.455011 3.900525,-1.692835 1.736337,-0.29554 5.197647,4.902625 6.497681,3.840002 0.580836,-0.474764 1.571049,-1.955154 2.318977,-2.013253 L 39.999999,25 40,5 c 0,0 -0.969826,-0.00846 -1.330645,0.2641138 -3.584852,2.7080855 -2.464279,9.4131492 -6.13784,11.9996212 -1.704598,1.200169 -4.655698,2.202023 -6.202256,0.80409 C 22.807953,14.884918 31.018245,5.8660146 26.728776,3.8335419 23.012515,2.0726718 21.433752,12.731748 17.404082,11.911374 13.590876,11.135069 16.158379,1.6054978 12.271092,1.4260947 7.6767062,1.2140581 9.6494907,13.801432 5.0887655,13.207191 2.3380294,12.848783 4.8736929,6.9798623 2.7222212,5.2288125 2.0159654,4.6540017 0,5 0,5 Z"
           id="path30016"
           sodipodi:nodetypes="caaaaasssccaaaaaaaacc" />
        <path
           style="fill:#fff6d5;fill-opacity:0.164948;stroke:none;stroke-width:0.264583px;stroke-linecap:butt;stroke-linejoin:miter;stroke-opacity:1"
           d="M 3.8656683e-4,2.5 C 6.3751656,2.5291344 5.5467445,2.1011501 8.3300466,2.0181189 10.916509,1.9409598 13.560148,1.608328 16.091879,2.1431952 c 3.642799,0.7695976 6.652946,3.5410849 10.286617,4.3526883 2.609189,0.5827788 5.594814,1.451757 8.014278,0.314352 1.519882,-0.714506 1.601757,-3.1695122 3.059951,-4.0027177 C 38.195306,2.3832102 40,2.5 40,2.5 L 39.999999,0 H 0 Z"
           id="path32003"
           sodipodi:nodetypes="csaaaacccc" />
      </g>
      <path
         style="fill:#f3e5a4;fill-opacity:1;stroke:none;stroke-width:0.264583px;stroke-linecap:butt;stroke-linejoin:miter;stroke-opacity:1"
         d="M 0,3.6e-6 V 40.000004 h 2.1 v -2 c 0,-2.35468 0.36543,-4.69485 0.38455,-7.0474 0.0179,-2.19966 -0.1907,-4.39551 -0.25241,-6.59438 -0.0331,-1.17767 -0.0499,-2.35578 -0.0631,-3.53384 -0.026,-2.32421 -0.0753,-4.64906 -0.0316,-6.97301 0.047,-2.49439 0.36338,-4.98347 0.31552,-7.4778504 -0.0281,-1.46231 -0.353,-4.37352 -0.353,-4.37352 v -2 z"
         id="path4088"
         sodipodi:nodetypes="cccsaaaaaccc" />
      <g
         id="g3376"
         style="fill:#000000;fill-opacity:0.20392157">
        <path
           id="path4088-6-5"
           style="fill:#000000;fill-opacity:0.20392157;stroke:none;stroke-width:0.994688px;stroke-linecap:butt;stroke-linejoin:miter;stroke-opacity:1"
           d="m 120.51758,92.597656 c 0,0 -0.0911,5.042546 0,7.560544 0.18976,5.24221 1.06729,10.45006 1.13672,15.69532 0.12482,9.43021 -1.23856,18.83084 -1.29688,28.26171 -0.0146,2.35572 0.0666,4.71127 0.18946,7.06641 h 30.63476 V 92.597656 Z"
           transform="scale(0.26458333)" />
        <path
           id="path4088-6-5-7"
           style="fill:#000000;fill-opacity:0.20392157;stroke:none;stroke-width:0.994688px;stroke-linecap:butt;stroke-linejoin:miter;stroke-opacity:1"
           d="m 120.54688,0 c 0.3665,7.0289532 1.10132,14.056116 0.7539,21.078125 -0.20612,4.166154 -1.30742,8.245577 -1.65234,12.402344 -0.49004,5.905451 -0.61933,11.841468 -0.58985,17.767578 0.056,11.27421 1.21596,22.519342 1.45899,33.791015 0.0543,2.519086 0,7.558594 0,7.558594 h 30.66406 V 0 Z"
           transform="scale(0.26458333)" />
      </g>
      <path
         style="fill:#f3e5a4;fill-opacity:1;stroke:none;stroke-width:0.264583px;stroke-linecap:butt;stroke-linejoin:miter;stroke-opacity:1"
         d="m 40,4e-6 v 40 h -2.000004 c 0,0 0.01453,-1.333492 4e-6,-2 -0.065,-2.982297 -0.374925,-5.957549 -0.389899,-8.940517 -0.0079,-1.56795 0.02671,-3.138779 0.157757,-4.701263 0.09224,-1.099811 0.386608,-2.179125 0.441728,-3.28142 0.124032,-2.480423 -0.267929,-4.962817 -0.252413,-7.446291 0.01559,-2.495252 0.380452,-4.982775 0.347072,-7.477852 C 38.285675,4.764856 38.050744,3.387005 38,2.000004 c -0.02437,-0.666221 -7e-6,-2 -7e-6,-2 z"
         id="path4088-6"
         sodipodi:nodetypes="cccaaaaaaacc" />
    </g>
  </g>
</svg>
