<?xml version="1.0" encoding="UTF-8" standalone="no"?>
<!-- Created with Inkscape (http://www.inkscape.org/) -->

<svg
   width="210mm"
   height="297mm"
   viewBox="0 0 210 297"
   version="1.1"
   id="svg5"
   inkscape:version="1.1 (c68e22c387, 2021-05-23)"
   sodipodi:docname="tower.svg"
   xmlns:inkscape="http://www.inkscape.org/namespaces/inkscape"
   xmlns:sodipodi="http://sodipodi.sourceforge.net/DTD/sodipodi-0.dtd"
   xmlns="http://www.w3.org/2000/svg"
   xmlns:svg="http://www.w3.org/2000/svg">
  <sodipodi:namedview
     id="namedview7"
     pagecolor="#ffffff"
     bordercolor="#999999"
     borderopacity="1"
     inkscape:pageshadow="0"
     inkscape:pageopacity="0"
     inkscape:pagecheckerboard="0"
     inkscape:document-units="mm"
     showgrid="false"
     inkscape:zoom="2.096401"
     inkscape:cx="110.66585"
     inkscape:cy="88.007973"
     inkscape:window-width="1920"
     inkscape:window-height="1017"
     inkscape:window-x="1352"
     inkscape:window-y="-8"
     inkscape:window-maximized="1"
     inkscape:current-layer="layer1" />
  <defs
     id="defs2" />
  <g
     inkscape:label="Слой 1"
     inkscape:groupmode="layer"
     id="layer1">
    <g
       id="g25850">
      <path
         style="fill:#4d4d4d;fill-opacity:1;stroke:none;stroke-width:0.264583px;stroke-linecap:butt;stroke-linejoin:miter;stroke-opacity:1"
         d="M 11,0 0,10 V 30 L 11,40 H 29 L 40,30 V 10 L 29,0 Z"
         id="path1382-6"
         sodipodi:nodetypes="ccccccccc" />
      <path
         style="fill:#999999;fill-opacity:1;stroke:none;stroke-width:0.210886px;stroke-linecap:butt;stroke-linejoin:miter;stroke-opacity:1"
         d="M 12.8,5.0294118 4,12.970589 v 11.117647 l 8.8,7.941176 H 27.2 L 36,24.088236 V 12.970589 L 27.2,5.0294118 Z"
         id="path1382-0"
         sodipodi:nodetypes="ccccccccc" />
      <path
         id="path1382"
         style="fill:#f3e5a4;fill-opacity:1;stroke:none;stroke-width:0.999999px;stroke-linecap:butt;stroke-linejoin:miter;stroke-opacity:1"
         d="M 41.574219 0 L 0 37.794922 L 0 90.708984 L 41.574219 128.50391 L 109.60547 128.50391 L 151.18164 90.708984 L 151.18164 37.794922 L 109.60547 0 L 41.574219 0 z M 48.378906 13.228516 L 102.80273 13.228516 L 136.0625 43.242188 L 136.0625 85.261719 L 102.80273 115.27539 L 48.378906 115.27539 L 15.117188 85.261719 L 15.117188 43.242188 L 48.378906 13.228516 z "
         transform="scale(0.26458333)" />
      <path
         style="fill:#cdba66;fill-opacity:1;stroke:none;stroke-width:0.264583px;stroke-linecap:butt;stroke-linejoin:miter;stroke-opacity:1"
         d="M 11,34 0,24 v 6 L 11,40 H 29 L 40,30 V 24 L 29,34 Z"
         id="path1382-6-6"
         sodipodi:nodetypes="ccccccccc" />
      <g
         id="g16444">
        <path
           style="fill:#808080;fill-opacity:1;stroke:none;stroke-width:0.264583px;stroke-linecap:butt;stroke-linejoin:miter;stroke-opacity:1"
           d="M 7.1216952,33.44769 1.1378455,28.044547 2.0525841,27.676419 8.1906384,32.750674 Z"
           id="path9745"
           sodipodi:nodetypes="ccccc" />
        <path
           style="fill:#808080;fill-opacity:1;stroke:none;stroke-width:0.264583px;stroke-linecap:butt;stroke-linejoin:miter;stroke-opacity:1"
           d="M 8.1906384,32.750672 8.1088874,34.147249 7.5015096,34.588977 7.1216945,33.447691 Z"
           id="path11706"
           sodipodi:nodetypes="ccccc" />
        <path
           style="fill:#808080;fill-opacity:1;stroke:none;stroke-width:0.264583px;stroke-linecap:butt;stroke-linejoin:miter;stroke-opacity:1"
           d="m 1.1378455,28.044547 0.3798151,1.141286 5.983849,5.403144 -0.3798153,-1.141286 z"
           id="path12041"
           sodipodi:nodetypes="ccccc" />
      </g>
      <g
         id="g9353">
        <path
           style="fill:#d80000;fill-opacity:1;stroke:none;stroke-width:0.264583px;stroke-linecap:butt;stroke-linejoin:miter;stroke-opacity:1"
           d="m 1.5134753,28.182128 c 0,0 -1.96107014,-4.37649 0.464793,-4.343731 1.9693966,0.0266 1.8506898,1.743678 1.8506898,1.743678 -0.017468,0.408395 -0.7168864,0.430707 -0.7572499,0.02324 0,0 0.017349,-1.183184 -1.0762708,-1.157258 -1.02790468,0.02437 0.2132089,3.538648 0.2132089,3.538648 0.1336452,0.345768 -0.5920436,0.488031 -0.695171,0.195423 z"
           id="path5109"
           sodipodi:nodetypes="ssscsss" />
        <path
           style="fill:#0000d6;fill-opacity:1;stroke:none;stroke-width:0.264583px;stroke-linecap:butt;stroke-linejoin:miter;stroke-opacity:1"
           d="m 2.0135432,28.573576 c 0,0 -1.96107013,-4.368602 0.464793,-4.335843 1.9693966,0.0266 1.8506898,1.743678 1.8506898,1.743678 -0.017468,0.408395 -0.7168864,0.430707 -0.7572499,0.02324 0,0 0.017349,-1.183184 -1.0762708,-1.157258 -1.0279047,0.02437 0.2132089,3.538648 0.2132089,3.538648 0.1415332,0.393096 -0.6235957,0.495919 -0.695171,0.187535 z"
           id="path5109-3"
           sodipodi:nodetypes="ssscsss" />
        <path
           style="fill:#008000;fill-opacity:1;stroke:none;stroke-width:0.264583px;stroke-linecap:butt;stroke-linejoin:miter;stroke-opacity:1"
           d="m 2.5082463,29.038845 c 0,0 -2.01404391,-4.329037 0.4118192,-4.296278 1.9693966,0.0266 1.8506898,1.743678 1.8506898,1.743678 -0.017468,0.408395 -0.7168864,0.430707 -0.7572499,0.02324 0,0 0.017349,-1.183184 -1.0762708,-1.157258 -1.0279047,0.02437 0.2132089,3.538648 0.2132089,3.538648 0.1286281,0.379466 -0.5586057,0.434769 -0.6421972,0.14797 z"
           id="path5109-2"
           sodipodi:nodetypes="ssscsss" />
        <path
           style="fill:#d900d9;fill-opacity:1;stroke:none;stroke-width:0.264583px;stroke-linecap:butt;stroke-linejoin:miter;stroke-opacity:1"
           d="m 2.957303,29.468626 c 0,0 -1.95826722,-4.395969 0.4675959,-4.36321 1.9693966,0.0266 1.8506898,1.743678 1.8506898,1.743678 -0.017468,0.408395 -0.7168864,0.430707 -0.7572499,0.02324 0,0 0.017349,-1.183184 -1.0762708,-1.157258 -1.0279047,0.02437 0.2132089,3.538648 0.2132089,3.538648 0.1342057,0.41851 -0.5753387,0.563055 -0.6979739,0.214902 z"
           id="path5109-4"
           sodipodi:nodetypes="ssscsss" />
        <path
           style="fill:#e2e200;fill-opacity:1;stroke:none;stroke-width:0.264583px;stroke-linecap:butt;stroke-linejoin:miter;stroke-opacity:1"
           d="m 3.4490672,29.87689 c 0,0 -1.9136459,-4.362503 0.5122173,-4.329744 1.9693966,0.0266 1.8506898,1.743678 1.8506898,1.743678 -0.017468,0.408395 -0.7168864,0.430707 -0.7572499,0.02324 0,0 0.017349,-1.183184 -1.0762708,-1.157258 -1.0279047,0.02437 0.2132089,3.538648 0.2132089,3.538648 0.1230504,0.373888 -0.6311155,0.585366 -0.7425953,0.181436 z"
           id="path5109-1"
           sodipodi:nodetypes="ssscsss" />
        <path
           style="fill:#d45500;fill-opacity:1;stroke:none;stroke-width:0.264583px;stroke-linecap:butt;stroke-linejoin:miter;stroke-opacity:1"
           d="m 3.9966079,30.282447 c 0,0 -1.9248011,-4.373659 0.501062,-4.3409 1.9693966,0.0266 1.8506898,1.743678 1.8506898,1.743678 -0.017468,0.408395 -0.7168864,0.430707 -0.7572499,0.02324 0,0 0.017349,-1.183184 -1.0762708,-1.157258 -1.0279047,0.02437 0.2132089,3.538648 0.2132089,3.538648 0.072851,0.401777 -0.6366931,0.518434 -0.73144,0.192592 z"
           id="path5109-9"
           sodipodi:nodetypes="ssscsss" />
        <path
           style="fill:#d80000;fill-opacity:1;stroke:none;stroke-width:0.264583px;stroke-linecap:butt;stroke-linejoin:miter;stroke-opacity:1"
           d="m 4.4874667,30.781069 c 0,0 -1.9610701,-4.37649 0.464793,-4.343731 1.9693966,0.0266 1.8506898,1.743678 1.8506898,1.743678 -0.017468,0.408395 -0.7168864,0.430707 -0.7572499,0.02324 0,0 0.017349,-1.183184 -1.0762708,-1.157258 -1.0279047,0.02437 0.2132089,3.538648 0.2132089,3.538648 0.1336452,0.345768 -0.5920436,0.488031 -0.695171,0.195423 z"
           id="path5109-97"
           sodipodi:nodetypes="ssscsss" />
        <path
           style="fill:#0000d6;fill-opacity:1;stroke:none;stroke-width:0.264583px;stroke-linecap:butt;stroke-linejoin:miter;stroke-opacity:1"
           d="m 4.9875346,31.172517 c 0,0 -1.9610701,-4.368602 0.464793,-4.335843 1.9693966,0.0266 1.8506898,1.743678 1.8506898,1.743678 -0.017468,0.408395 -0.7168864,0.430707 -0.7572499,0.02324 0,0 0.017349,-1.183184 -1.0762708,-1.157258 -1.0279047,0.02437 0.2132089,3.538648 0.2132089,3.538648 0.1415332,0.393096 -0.6235957,0.495919 -0.695171,0.187535 z"
           id="path5109-3-1"
           sodipodi:nodetypes="ssscsss" />
        <path
           style="fill:#008000;fill-opacity:1;stroke:none;stroke-width:0.264583px;stroke-linecap:butt;stroke-linejoin:miter;stroke-opacity:1"
           d="m 5.4822377,31.637786 c 0,0 -2.0140439,-4.329037 0.4118192,-4.296278 1.9693966,0.0266 1.8506898,1.743678 1.8506898,1.743678 -0.017468,0.408395 -0.7168864,0.430707 -0.7572499,0.02324 0,0 0.017349,-1.183184 -1.0762708,-1.157258 -1.0279047,0.02437 0.2132089,3.538648 0.2132089,3.538648 0.1286281,0.379466 -0.5586057,0.434769 -0.6421972,0.14797 z"
           id="path5109-2-0"
           sodipodi:nodetypes="ssscsss" />
        <path
           style="fill:#d900d9;fill-opacity:1;stroke:none;stroke-width:0.264583px;stroke-linecap:butt;stroke-linejoin:miter;stroke-opacity:1"
           d="m 5.9312944,32.067567 c 0,0 -1.9582672,-4.395969 0.4675959,-4.36321 1.9693966,0.0266 1.8506898,1.743678 1.8506898,1.743678 -0.017468,0.408395 -0.7168864,0.430707 -0.7572499,0.02324 0,0 0.017349,-1.183184 -1.0762708,-1.157258 -1.0279047,0.02437 0.2132089,3.538648 0.2132089,3.538648 0.1342057,0.41851 -0.5753387,0.563055 -0.6979739,0.214902 z"
           id="path5109-4-8"
           sodipodi:nodetypes="ssscsss" />
        <path
           style="fill:#e2e200;fill-opacity:1;stroke:none;stroke-width:0.264583px;stroke-linecap:butt;stroke-linejoin:miter;stroke-opacity:1"
           d="m 6.4230586,32.475831 c 0,0 -1.9136459,-4.362503 0.5122173,-4.329744 1.9693966,0.0266 1.8506898,1.743678 1.8506898,1.743678 -0.017468,0.408395 -0.7168864,0.430707 -0.7572499,0.02324 0,0 0.017349,-1.183184 -1.0762708,-1.157258 -1.0279047,0.02437 0.2132089,3.538648 0.2132089,3.538648 0.1230504,0.373888 -0.6311155,0.585366 -0.7425953,0.181436 z"
           id="path5109-1-1"
           sodipodi:nodetypes="ssscsss" />
        <path
           style="fill:#d45500;fill-opacity:1;stroke:none;stroke-width:0.264583px;stroke-linecap:butt;stroke-linejoin:miter;stroke-opacity:1"
           d="m 6.9705993,32.881388 c 0,0 -1.9248011,-4.373659 0.501062,-4.3409 1.9693966,0.0266 1.8506898,1.743678 1.8506898,1.743678 -0.017468,0.408395 -0.7168864,0.430707 -0.7572499,0.02324 0,0 0.017349,-1.183184 -1.0762708,-1.157258 -1.0279047,0.02437 0.2132089,3.538648 0.2132089,3.538648 0.072851,0.401777 -0.6366931,0.518434 -0.73144,0.192592 z"
           id="path5109-9-0"
           sodipodi:nodetypes="ssscsss" />
      </g>
      <g
         id="g23774">
        <g
           id="g22034">
          <path
             style="fill:#000000;stroke:none;stroke-width:0.264583px;stroke-linecap:butt;stroke-linejoin:miter;stroke-opacity:1"
             d="m 13,34 v 5 h 14 v -5 z"
             id="path20553"
             sodipodi:nodetypes="ccccc" />
          <path
             style="fill:#000080;stroke:none;stroke-width:0.228042px;stroke-linecap:butt;stroke-linejoin:miter;stroke-opacity:1"
             d="m 13.5,34.5 v 4 h 13 v -4 z"
             id="path20553-1"
             sodipodi:nodetypes="ccccc" />
        </g>
        <path
           style="fill:#ffffff;stroke:#ffffff;stroke-width:0.1;stroke-linecap:butt;stroke-linejoin:miter;stroke-miterlimit:4;stroke-dasharray:none;stroke-opacity:1"
           d="m 13.938136,34.999157 c 0.01578,-0.01842 0.03111,-0.0372 0.04733,-0.05522 0.0045,-0.01744 0.03636,-0.02847 0.04733,-0.03944 0.0042,-0.0042 0.0037,-0.01161 0.0079,-0.01577 0.01452,-0.01453 0.03501,0.02302 0.04733,0.03944 0.0371,0.04947 0.09686,0.103966 0.165649,0.08677 0.0468,-0.0117 0.147913,-0.118319 0.149872,-0.118319 0.0026,0 0,0.0053 0,0.0079 0,0.03234 -0.01256,0.103423 0.0079,0.134096 0.0092,0.01378 0.02606,-0.01847 0.07099,-0.03944 0.0598,-0.02791 0.19544,-0.07596 0.260305,-0.08677 0.104831,-0.01746 0.0067,0.116639 0.15776,0.07888 0.03361,-0.0084 0.221799,-0.111504 0.236641,-0.08677 0.0073,0.01215 0.0089,0.02706 0.01578,0.03944 0.02609,0.04696 0.07836,0.08677 0.134096,0.08677 0.09756,0 0.164305,-0.09684 0.252417,-0.126209 0.022,-0.0073 0.04105,0.04894 0.04733,0.05522 0.0042,0.0042 0.05444,0.0021 0.0631,0 0.0356,-0.0089 0.193715,-0.09025 0.205089,-0.07888 0.03034,0.03034 0.065,0.07834 0.11832,0.06311 0.03698,-0.01056 0.146039,-0.110435 0.165649,-0.110435 0.0026,0 -8.21e-4,0.0054 0,0.0079 0.0045,0.01344 0.0102,0.02643 0.01578,0.03944 0.0093,0.0217 0.07072,0.166891 0.110432,0.149873 0.07254,-0.03109 0.134834,-0.08319 0.205089,-0.118322 0.01216,-0.0061 0.04572,0.06343 0.08677,0.05522 0.07347,-0.01468 0.125756,-0.07084 0.197201,-0.09466 0.01177,-0.0039 0.0963,0.09227 0.149872,0.07888 0.06494,-0.01625 0.09783,-0.05286 0.165648,-0.08677 0.02557,-0.01278 0.0327,0.02424 0.04733,0.03155 0.03942,0.01971 0.08733,-0.04127 0.126208,-0.03155 0.03304,0.0083 0.03822,0.04277 0.0631,0.05522 0.02321,0.01162 0.05382,-0.03944 0.07888,-0.03944"
           id="path22069" />
        <path
           style="fill:#ffffff;stroke:#ffffff;stroke-width:0.1;stroke-linecap:butt;stroke-linejoin:miter;stroke-miterlimit:4;stroke-dasharray:none;stroke-opacity:1"
           d="m 13.907885,35.560963 c 0.01578,-0.01842 0.03111,-0.0372 0.04733,-0.05522 0.0045,-0.01744 0.03636,-0.02847 0.04733,-0.03944 0.0042,-0.0042 0.0037,-0.01161 0.0079,-0.01577 0.01452,-0.01453 0.03501,0.02302 0.04733,0.03944 0.0371,0.04947 0.09686,0.103966 0.165649,0.08677 0.0468,-0.0117 0.147913,-0.118319 0.149872,-0.118319 0.0026,0 0,0.0053 0,0.0079 0,0.03234 -0.01256,0.103423 0.0079,0.134096 0.0092,0.01378 0.02606,-0.01847 0.07099,-0.03944 0.0598,-0.02791 0.19544,-0.07596 0.260305,-0.08677 0.104831,-0.01746 0.0067,0.116639 0.15776,0.07888 0.03361,-0.0084 0.221799,-0.111504 0.236641,-0.08677 0.0073,0.01215 0.0089,0.02706 0.01578,0.03944 0.02609,0.04696 0.07836,0.08677 0.134096,0.08677 0.09756,0 0.164305,-0.09684 0.252417,-0.126209 0.022,-0.0073 0.04105,0.04894 0.04733,0.05522 0.0042,0.0042 0.05444,0.0021 0.0631,0 0.0356,-0.0089 0.193715,-0.09025 0.205089,-0.07888 0.03034,0.03034 0.065,0.07834 0.11832,0.06311 0.03698,-0.01056 0.146039,-0.110435 0.165649,-0.110435 0.0026,0 -8.21e-4,0.0054 0,0.0079 0.0045,0.01344 0.0102,0.02643 0.01578,0.03944 0.0093,0.0217 0.07072,0.166891 0.110432,0.149873 0.07254,-0.03109 0.134834,-0.08319 0.205089,-0.118322 0.01216,-0.0061 0.04572,0.06343 0.08677,0.05522 0.07347,-0.01468 0.125756,-0.07084 0.197201,-0.09466 0.01177,-0.0039 0.0963,0.09227 0.149872,0.07888 0.06494,-0.01625 0.09783,-0.05286 0.165648,-0.08677 0.02557,-0.01278 0.0327,0.02424 0.04733,0.03155 0.03942,0.01971 0.08733,-0.04127 0.126208,-0.03155 0.03304,0.0083 0.03822,0.04277 0.0631,0.05522 0.02321,0.01162 0.05382,-0.03944 0.07888,-0.03944"
           id="path22069-1" />
        <path
           style="fill:#ffffff;stroke:#ffffff;stroke-width:0.1;stroke-linecap:butt;stroke-linejoin:miter;stroke-miterlimit:4;stroke-dasharray:none;stroke-opacity:1"
           d="m 13.911153,36.227809 c 0.01578,-0.01842 0.03111,-0.0372 0.04733,-0.05522 0.0045,-0.01744 0.03636,-0.02847 0.04733,-0.03944 0.0042,-0.0042 0.0037,-0.01161 0.0079,-0.01577 0.01452,-0.01453 0.03501,0.02302 0.04733,0.03944 0.0371,0.04947 0.09686,0.103966 0.165649,0.08677 0.0468,-0.0117 0.147913,-0.118319 0.149872,-0.118319 0.0026,0 0,0.0053 0,0.0079 0,0.03234 -0.01256,0.103423 0.0079,0.134096 0.0092,0.01378 0.02606,-0.01847 0.07099,-0.03944 0.0598,-0.02791 0.19544,-0.07596 0.260305,-0.08677 0.104831,-0.01746 0.0067,0.116639 0.15776,0.07888 0.03361,-0.0084 0.221799,-0.111504 0.236641,-0.08677 0.0073,0.01215 0.0089,0.02706 0.01578,0.03944 0.02609,0.04696 0.07836,0.08677 0.134096,0.08677 0.09756,0 0.164305,-0.09684 0.252417,-0.126209 0.022,-0.0073 0.04105,0.04894 0.04733,0.05522 0.0042,0.0042 0.05444,0.0021 0.0631,0 0.0356,-0.0089 0.193715,-0.09025 0.205089,-0.07888 0.03034,0.03034 0.065,0.07834 0.11832,0.06311 0.03698,-0.01056 0.146039,-0.110435 0.165649,-0.110435 0.0026,0 -8.21e-4,0.0054 0,0.0079 0.0045,0.01344 0.0102,0.02643 0.01578,0.03944 0.0093,0.0217 0.07072,0.166891 0.110432,0.149873 0.07254,-0.03109 0.134834,-0.08319 0.205089,-0.118322 0.01216,-0.0061 0.04572,0.06343 0.08677,0.05522 0.07347,-0.01468 0.125756,-0.07084 0.197201,-0.09466 0.01177,-0.0039 0.0963,0.09227 0.149872,0.07888 0.06494,-0.01625 0.09783,-0.05286 0.165648,-0.08677 0.02557,-0.01278 0.0327,0.02424 0.04733,0.03155 0.03942,0.01971 0.08733,-0.04127 0.126208,-0.03155 0.03304,0.0083 0.03822,0.04277 0.0631,0.05522 0.02321,0.01162 0.05382,-0.03944 0.07888,-0.03944"
           id="path22069-6" />
        <path
           style="fill:#ffffff;stroke:#ffffff;stroke-width:0.1;stroke-linecap:butt;stroke-linejoin:miter;stroke-miterlimit:4;stroke-dasharray:none;stroke-opacity:1"
           d="m 13.957128,36.847889 c 0.01578,-0.01842 0.03111,-0.0372 0.04733,-0.05522 0.0045,-0.01744 0.03636,-0.02847 0.04733,-0.03944 0.0042,-0.0042 0.0037,-0.01161 0.0079,-0.01577 0.01452,-0.01453 0.03501,0.02302 0.04733,0.03944 0.0371,0.04947 0.09686,0.103966 0.165649,0.08677 0.0468,-0.0117 0.147913,-0.118319 0.149872,-0.118319 0.0026,0 0,0.0053 0,0.0079 0,0.03234 -0.01256,0.103423 0.0079,0.134096 0.0092,0.01378 0.02606,-0.01847 0.07099,-0.03944 0.0598,-0.02791 0.19544,-0.07596 0.260305,-0.08677 0.104831,-0.01746 0.0067,0.116639 0.15776,0.07888 0.03361,-0.0084 0.221799,-0.111504 0.236641,-0.08677 0.0073,0.01215 0.0089,0.02706 0.01578,0.03944 0.02609,0.04696 0.07836,0.08677 0.134096,0.08677 0.09756,0 0.164305,-0.09684 0.252417,-0.126209 0.022,-0.0073 0.04105,0.04894 0.04733,0.05522 0.0042,0.0042 0.05444,0.0021 0.0631,0 0.0356,-0.0089 0.193715,-0.09025 0.205089,-0.07888 0.03034,0.03034 0.065,0.07834 0.11832,0.06311 0.03698,-0.01056 0.146039,-0.110435 0.165649,-0.110435 0.0026,0 -8.21e-4,0.0054 0,0.0079 0.0045,0.01344 0.0102,0.02643 0.01578,0.03944 0.0093,0.0217 0.07072,0.166891 0.110432,0.149873 0.07254,-0.03109 0.134834,-0.08319 0.205089,-0.118322 0.01216,-0.0061 0.04572,0.06343 0.08677,0.05522 0.07347,-0.01468 0.125756,-0.07084 0.197201,-0.09466 0.01177,-0.0039 0.0963,0.09227 0.149872,0.07888 0.06494,-0.01625 0.09783,-0.05286 0.165648,-0.08677 0.02557,-0.01278 0.0327,0.02424 0.04733,0.03155 0.03942,0.01971 0.08733,-0.04127 0.126208,-0.03155 0.03304,0.0083 0.03822,0.04277 0.0631,0.05522 0.02321,0.01162 0.05382,-0.03944 0.07888,-0.03944"
           id="path22069-14" />
        <path
           style="fill:#ffffff;stroke:#ffffff;stroke-width:0.1;stroke-linecap:butt;stroke-linejoin:miter;stroke-miterlimit:4;stroke-dasharray:none;stroke-opacity:1"
           d="m 13.942705,37.460079 c 0.01578,-0.01842 0.03111,-0.0372 0.04733,-0.05522 0.0045,-0.01744 0.03636,-0.02847 0.04733,-0.03944 0.0042,-0.0042 0.0037,-0.01161 0.0079,-0.01577 0.01452,-0.01453 0.03501,0.02302 0.04733,0.03944 0.0371,0.04947 0.09686,0.103966 0.165649,0.08677 0.0468,-0.0117 0.147913,-0.118319 0.149872,-0.118319 0.0026,0 0,0.0053 0,0.0079 0,0.03234 -0.01256,0.103423 0.0079,0.134096 0.0092,0.01378 0.02606,-0.01847 0.07099,-0.03944 0.0598,-0.02791 0.19544,-0.07596 0.260305,-0.08677 0.104831,-0.01746 0.0067,0.116639 0.15776,0.07888 0.03361,-0.0084 0.221799,-0.111504 0.236641,-0.08677 0.0073,0.01215 0.0089,0.02706 0.01578,0.03944 0.02609,0.04696 0.07836,0.08677 0.134096,0.08677 0.09756,0 0.164305,-0.09684 0.252417,-0.126209 0.022,-0.0073 0.04105,0.04894 0.04733,0.05522 0.0042,0.0042 0.05444,0.0021 0.0631,0 0.0356,-0.0089 0.193715,-0.09025 0.205089,-0.07888 0.03034,0.03034 0.065,0.07834 0.11832,0.06311 0.03698,-0.01056 0.146039,-0.110435 0.165649,-0.110435 0.0026,0 -8.21e-4,0.0054 0,0.0079 0.0045,0.01344 0.0102,0.02643 0.01578,0.03944 0.0093,0.0217 0.07072,0.166891 0.110432,0.149873 0.07254,-0.03109 0.134834,-0.08319 0.205089,-0.118322 0.01216,-0.0061 0.04572,0.06343 0.08677,0.05522 0.07347,-0.01468 0.125756,-0.07084 0.197201,-0.09466 0.01177,-0.0039 0.0963,0.09227 0.149872,0.07888 0.06494,-0.01625 0.09783,-0.05286 0.165648,-0.08677 0.02557,-0.01278 0.0327,0.02424 0.04733,0.03155 0.03942,0.01971 0.08733,-0.04127 0.126208,-0.03155 0.03304,0.0083 0.03822,0.04277 0.0631,0.05522 0.02321,0.01162 0.05382,-0.03944 0.07888,-0.03944"
           id="path22069-9" />
        <path
           style="fill:#ffffff;stroke:#ffffff;stroke-width:0.1;stroke-linecap:butt;stroke-linejoin:miter;stroke-miterlimit:4;stroke-dasharray:none;stroke-opacity:1"
           d="m 13.907885,38.134813 c 0.01578,-0.01842 0.03111,-0.0372 0.04733,-0.05522 0.0045,-0.01744 0.03636,-0.02847 0.04733,-0.03944 0.0042,-0.0042 0.0037,-0.01161 0.0079,-0.01577 0.01452,-0.01453 0.03501,0.02302 0.04733,0.03944 0.0371,0.04947 0.09686,0.103966 0.165649,0.08677 0.0468,-0.0117 0.147913,-0.118319 0.149872,-0.118319 0.0026,0 0,0.0053 0,0.0079 0,0.03234 -0.01256,0.103423 0.0079,0.134096 0.0092,0.01378 0.02606,-0.01847 0.07099,-0.03944 0.0598,-0.02791 0.19544,-0.07596 0.260305,-0.08677 0.104831,-0.01746 0.0067,0.116639 0.15776,0.07888 0.03361,-0.0084 0.221799,-0.111504 0.236641,-0.08677 0.0073,0.01215 0.0089,0.02706 0.01578,0.03944 0.02609,0.04696 0.07836,0.08677 0.134096,0.08677 0.09756,0 0.164305,-0.09684 0.252417,-0.126209 0.022,-0.0073 0.04105,0.04894 0.04733,0.05522 0.0042,0.0042 0.05444,0.0021 0.0631,0 0.0356,-0.0089 0.193715,-0.09025 0.205089,-0.07888 0.03034,0.03034 0.065,0.07834 0.11832,0.06311 0.03698,-0.01056 0.146039,-0.110435 0.165649,-0.110435 0.0026,0 -8.21e-4,0.0054 0,0.0079 0.0045,0.01344 0.0102,0.02643 0.01578,0.03944 0.0093,0.0217 0.07072,0.166891 0.110432,0.149873 0.07254,-0.03109 0.134834,-0.08319 0.205089,-0.118322 0.01216,-0.0061 0.04572,0.06343 0.08677,0.05522 0.07347,-0.01468 0.125756,-0.07084 0.197201,-0.09466 0.01177,-0.0039 0.0963,0.09227 0.149872,0.07888 0.06494,-0.01625 0.09783,-0.05286 0.165648,-0.08677 0.02557,-0.01278 0.0327,0.02424 0.04733,0.03155 0.03942,0.01971 0.08733,-0.04127 0.126208,-0.03155 0.03304,0.0083 0.03822,0.04277 0.0631,0.05522 0.02321,0.01162 0.05382,-0.03944 0.07888,-0.03944"
           id="path22069-8" />
        <rect
           style="fill:#ff0000;fill-opacity:1;fill-rule:evenodd;stroke:none;stroke-width:0.0910148;stroke-linecap:square;stroke-linejoin:bevel;stroke-miterlimit:4;stroke-dasharray:none;stroke-opacity:1;paint-order:markers stroke fill"
           id="rect23170"
           width="0.75"
           height="3"
           x="-18.75"
           y="35"
           transform="scale(-1,1)" />
        <rect
           style="fill:#008000;fill-opacity:1;fill-rule:evenodd;stroke:none;stroke-width:0.0910148;stroke-linecap:square;stroke-linejoin:bevel;stroke-miterlimit:4;stroke-dasharray:none;stroke-opacity:1;paint-order:markers stroke fill"
           id="rect23170-1"
           width="0.75"
           height="3"
           x="-20.25"
           y="35"
           transform="scale(-1,1)" />
      </g>
      <rect
         style="fill:#000000;fill-opacity:1;fill-rule:evenodd;stroke:none;stroke-width:0.0968736;stroke-linecap:square;stroke-linejoin:bevel;stroke-miterlimit:4;stroke-dasharray:none;stroke-opacity:1;paint-order:markers stroke fill"
         id="rect23674"
         width="5"
         height="3"
         x="21"
         y="35" />
      <path
         style="fill:#ff0000;stroke:none;stroke-width:0.264583px;stroke-linecap:butt;stroke-linejoin:miter;stroke-opacity:1;fill-opacity:1"
         d="m 21.463309,35.961494 c -0.007,-0.03065 -0.02092,-0.128947 0,-0.14987 0.0042,-0.0042 0.01252,-0.003 0.01578,-0.0079 0.01683,-0.02524 -0.01562,-0.008 0.0079,-0.02365 0.05756,-0.03837 0.143992,-0.0076 0.205088,0 0.01044,0.0013 0.02135,-0.0026 0.03155,0 0.01141,0.0029 0.01998,0.01368 0.03155,0.01577 0.04275,0.0078 0.09067,-0.0039 0.134097,0 0.01593,0.0013 0.03139,0.0066 0.04733,0.0079 0.146121,0.01217 0.309154,0 0.457505,0 0.216251,0 0.430537,0.0079 0.646818,0.0079 0.126208,0 0.252417,0 0.378625,0 0.08024,0 0.166532,0.0077 0.244529,-0.0079 0.04995,-0.01 0.09242,-0.03021 0.134096,-0.05522 0.08026,-0.04815 0.138378,-0.131561 0.197201,-0.205089 0.01393,-0.01741 0.03043,-0.02676 0.04733,-0.03944 0.02562,-0.01921 0.04447,-0.05404 0.0631,-0.07888 0.02341,-0.03121 0.06792,-0.05215 0.09466,-0.07888 0.0042,-0.0042 0.0037,-0.01161 0.0079,-0.01577 0.0097,-0.0097 0.06673,-0.04673 0.07888,-0.03944 0.03021,0.01812 0.07746,0.0459 0.102544,0.07099 0.02732,0.02732 0.04804,0.0621 0.07888,0.08677 0.03138,0.02511 0.05395,0.04771 0.07888,0.07888 0.02017,0.02521 0.05251,0.03847 0.07099,0.0631 0.0041,0.0055 0.01201,0.02779 0.01578,0.03155 0.02398,0.02397 0.03969,0.03189 0.0631,0.06311 0.01185,0.0158 0.01149,0.03018 0.01578,0.04733 0.0054,0.02159 0.01109,0.0127 0.02366,0.03155 0.0069,0.0104 0.009,0.03598 0.01578,0.04733 0.0038,0.0064 0.01165,0.0096 0.01578,0.01577 0.0066,0.0099 0.01021,0.0362 0.01578,0.04733 0.0069,0.01371 0.01282,0.0286 0.02366,0.03944 0.0019,0.0019 0.006,-0.0019 0.0079,0 0.0019,0.0019 -0.0024,0.0067 0,0.0079 0.01843,0.0092 0.02199,-0.0016 0.03944,0.01577 0.01473,0.01474 0.01786,0.04941 0.03155,0.06311 0.0075,0.0075 0.02911,0.02122 0.03944,0.03155 0.0019,0.0019 -0.0019,0.006 0,0.0079 0.01312,0.01312 0.07907,-0.06348 0.08677,-0.07888 0.01515,-0.0303 0.02166,-0.05221 0.03944,-0.07888 0.0092,-0.01379 9e-4,-0.04914 0.0079,-0.0631 0.0026,-0.0053 0.01252,-0.003 0.01578,-0.0079 0.0053,-0.0079 -0.0026,-0.01577 0,-0.02365 0.003,-0.009 0.01278,-0.01468 0.01578,-0.02365 0.0017,-0.005 -0.0017,-0.0108 0,-0.01577 0.0098,-0.02941 0.02837,-0.06145 0.03944,-0.09465 0.01029,-0.03088 0.04644,-0.148987 0.0631,-0.165651 0.02342,-0.02341 0.07214,-0.01577 0.110432,-0.01577 0.02712,0 0.113138,-0.0026 0.134097,0.0079 0.0062,0.0031 0.03376,0.04165 0.03944,0.04733 0.0088,0.0088 0.04133,0.03044 0.04733,0.03944 0.0029,0.0044 -0.0013,0.01069 0,0.01577 0.0061,0.02432 0.0633,0.122362 0.07099,0.126209 0.02157,0.0108 0.08607,-0.01648 0.102544,0 0.0019,0.0019 -0.0019,0.006 0,0.0079 0.0037,0.0037 0.01206,-0.0037 0.01578,0 0.0019,0.0019 -0.0019,0.006 0,0.0079 0.0019,0.0019 0.0067,-0.0024 0.0079,0 0.0081,0.01625 0.01708,0.07627 0.0079,0.09466 -0.0033,0.0066 -0.01131,0.0098 -0.01578,0.01577 -0.01938,0.0028 -0.0033,0.01675 -0.0079,0.02365 -0.01456,0.02183 -0.05116,0.04264 -0.07888,0.03155 -0.0069,-0.0028 -0.0096,-0.01164 -0.01578,-0.01577 -0.0044,-0.0029 -0.01206,0.0037 -0.01578,0 -0.0042,-0.0042 -0.003,-0.01252 -0.0079,-0.01577 -0.0044,-0.0029 -0.01068,0.0013 -0.01578,0 -0.05313,-0.01328 -1.22e-4,-1.21e-4 -0.01578,-0.01577 -0.01168,-0.01167 -0.04559,-0.0044 -0.05522,-0.02365 -0.01346,-0.02692 -0.04088,-0.0502 -0.05522,-0.07888 -0.01732,-0.03465 -0.03903,-0.0623 -0.05522,-0.09466 -0.004,-0.008 -0.03387,-0.02598 -0.03944,-0.03155 -0.0019,-0.0019 0.0019,-0.006 0,-0.0079 -0.0102,-0.01021 -0.06295,0.0052 -0.07099,0.0079 -0.0479,0.01596 -0.05619,0.100476 -0.0631,0.141984 -0.0075,0.04476 -0.02272,0.08994 -0.03155,0.134099 -0.0066,0.03285 -0.0076,0.06988 -0.01578,0.102541 -0.0081,0.03239 -0.04366,0.08915 -0.0631,0.118322 -0.0058,0.0087 -0.019,0.01434 -0.02366,0.02365 -0.0036,0.0071 -0.01063,0.02641 -0.01578,0.03155 -0.0037,0.0037 -0.0114,-0.0029 -0.01578,0 -0.0062,0.0041 -0.0091,0.01246 -0.01578,0.01577 -0.02107,0.01053 -0.06977,0.0029 -0.09466,0.0079 -0.135068,0.02701 -0.157548,2.65e-4 -0.220864,-0.110432 -0.01499,-0.02622 -0.01992,-0.05546 -0.03944,-0.07888 -0.02945,-0.03534 -0.09982,-0.120756 -0.118321,-0.15776 -0.0037,-0.0074 -0.0036,-0.01654 -0.0079,-0.02365 -0.02366,-0.03944 -0.0079,0 -0.02366,-0.02365 -0.01151,-0.01728 -0.01912,-0.03864 -0.03155,-0.05522 -0.01218,-0.01624 -0.03867,-0.02212 -0.04733,-0.03944 -0.01046,-0.02093 -0.03118,-0.05081 -0.04733,-0.07099 -0.01913,-0.02392 -0.0386,-0.04607 -0.05522,-0.07099 -0.0089,-0.01333 -0.0283,-0.0204 -0.03944,-0.03155 -0.0019,-0.0019 0.0019,-0.006 0,-0.0079 -0.0029,-0.0029 -0.05122,-0.0024 -0.05522,0 -0.04061,0.02437 -0.115655,0.07357 -0.141984,0.110435 -0.0263,0.03681 -0.06423,0.150992 -0.08677,0.173535 -0.0059,0.0059 -0.01778,0.0021 -0.02366,0.0079 -0.0042,0.0042 -0.0037,0.01162 -0.0079,0.01577 -0.01289,0.01289 -0.0473,0.01577 -0.0631,0.02365 -0.01206,0.006 -0.03816,0.02474 -0.05522,0.03155 -0.195777,0.07831 -0.417461,0.01886 -0.623153,0.03944 -0.01334,0.0013 -0.0263,0.0053 -0.03944,0.0079 -0.01578,0.0026 -0.03141,0.0063 -0.04733,0.0079 -0.04934,0.0049 -0.100687,-0.0061 -0.149872,0 -0.06083,0.0076 -0.112091,0.0088 -0.173537,0 -0.03862,-0.0055 -0.07955,0.0043 -0.11832,0 -0.04201,-0.0047 -0.08472,-0.01058 -0.126208,-0.01577 -0.03256,-0.0041 -0.0696,0 -0.102545,0 -0.11287,0 -0.227904,0.006 -0.339185,-0.0079 -0.05602,-0.007 -0.20733,-0.0098 -0.260304,0.0079 -0.01897,0.0063 -0.04361,-0.0049 -0.0631,0 -0.0057,0.0013 -0.01052,0.0053 -0.01578,0.0079 -0.0079,0.0026 -0.01551,0.0062 -0.02366,0.0079 -0.04516,0.009 -0.202278,-0.01323 -0.228753,0 -0.0024,0.0011 0.0019,0.006 0,0.0079 -0.0079,0.0079 -0.03944,-0.0079 -0.04733,0 -0.0019,0.0019 0.0019,0.006 0,0.0079 -0.0037,0.0037 -0.01107,-0.0024 -0.01578,0 -0.0053,0.0026 -0.002,0.01577 -0.0079,0.01577 -0.01084,0 -0.02103,-0.0053 -0.03155,-0.0079 z"
         id="path23877" />
      <path
         style="fill:#ff0000;stroke:none;stroke-width:0.264583px;stroke-linecap:butt;stroke-linejoin:miter;stroke-opacity:1;fill-opacity:1"
         d="m 21.550078,36.939608 c 0.07554,0.0054 0.146653,-0.01439 0.220864,-0.02365 0.0917,-0.01146 0.191239,0 0.283969,0 0.0069,0 0.05704,0.0061 0.0631,0 0.0075,-0.0075 0.02534,-0.04112 0.03155,-0.04733 0.0042,-0.0042 0.01162,-0.0037 0.01578,-0.0079 0.0042,-0.0042 0.0046,-0.01087 0.0079,-0.01577 0.01582,-0.02373 0.04392,-0.03603 0.0631,-0.05522 0.0042,-0.0042 0.0053,-0.0105 0.0079,-0.01577 0.0079,-0.0079 0.01509,-0.01654 0.02366,-0.02365 0.01178,-0.0098 0.0286,-0.01283 0.03944,-0.02365 0.0019,-0.0019 -0.0019,-0.006 0,-0.0079 0.01479,-0.01479 0.03737,-0.02754 0.05522,-0.03944 0.03024,-0.02016 -0.02254,0.0083 0.01578,-0.02365 0.01178,-0.0098 0.02734,-0.01426 0.03944,-0.02365 0.02708,-0.02106 0.05031,-0.05195 0.07888,-0.07099 0.0098,-0.0065 0.02324,-0.0075 0.03155,-0.01577 0.0048,-0.0048 0.0067,-0.02064 0.01578,-0.02365 0.02705,-0.009 0.119456,-0.01551 0.149873,-0.0079 0.05401,0.01349 0.08277,0.07683 0.110432,0.118322 0.01843,0.02764 0.03612,0.04554 0.05522,0.07099 0.01,0.01328 0.0058,0.02617 0.01578,0.03944 0.0035,0.0047 0.01225,0.0032 0.01578,0.0079 0.0095,0.01262 0.0087,0.04111 0.01578,0.05522 0.01293,0.02588 0.01869,0.05316 0.03155,0.07888 0.0033,0.0066 0.01245,0.0091 0.01578,0.01577 0.0074,0.01479 0.0078,0.03924 0.01578,0.05522 0.01153,0.02307 0.0302,0.06964 0.04733,0.08677 0.0042,0.0042 0.01162,0.0037 0.01578,0.0079 0.0046,0.0046 0.01121,0.02698 0.01578,0.03155 0.0037,0.0037 0.01107,-0.0024 0.01578,0 0.01469,0.0074 0.02234,0.02233 0.03155,0.03155 0.0019,0.0019 0.006,-0.0019 0.0079,0 0.03646,0.03646 0.03988,0.09049 0.110432,0.05522 0.03335,-0.01667 0.05386,-0.05386 0.07888,-0.07888 -0.0068,-0.04721 0.02324,-0.0075 0.03155,-0.01577 0.03847,-0.03847 0.07718,-0.08507 0.118321,-0.126206 0.0067,-0.0067 0.01696,-0.0091 0.02366,-0.01577 0.01247,-0.01246 0.01341,-0.03298 0.02366,-0.04733 0.0065,-0.0091 0.01578,-0.01577 0.02367,-0.02365 0.0053,-0.0105 0.0093,-0.02177 0.01578,-0.03155 0.01035,-0.01553 0.03106,-0.03057 0.03944,-0.04733 0.02202,-0.04404 0.04017,-0.08786 0.07099,-0.134096 0.01139,-0.01709 0.02887,-0.02972 0.03944,-0.04733 0.0499,-0.08317 0.04913,-0.104841 0.141984,-0.141986 0.01282,-0.0051 0.01798,-0.01016 0.03155,-0.0079 0.144707,0.0241 0.180189,0.131935 0.244528,0.244528 0.0037,0.0065 0.01195,0.0094 0.01578,0.01577 0.01724,0.02874 0.01421,0.0643 0.03155,0.09465 0.01275,0.0223 0.02492,0.02797 0.03944,0.04733 0.0041,0.0055 0.01201,0.02779 0.01578,0.03155 0.0037,0.0038 0.0278,0.01204 0.03155,0.01577 0.0083,0.0083 0.0087,0.02214 0.01578,0.03155 0.02655,0.0354 0.05244,0.04594 0.08677,0.0631 0.01219,0.0061 0.02008,0.02466 0.03155,0.03155 0.0071,0.0043 0.01623,0.0042 0.02366,0.0079 0.03137,0.01569 0.07864,0.0692 0.11832,0.03944 0.0047,-0.0035 0.0037,-0.01161 0.0079,-0.01577 0.01564,-0.01564 0.04007,-0.0205 0.05522,-0.03944 0.03036,-0.03794 0.06005,-0.07583 0.09466,-0.110431 0.0075,-0.0075 0.02634,-0.01714 0.03155,-0.02365 0.01102,-0.01376 0.01119,-0.03486 0.02366,-0.04733 0.01632,-0.01633 -6.35e-4,0.02495 0.01578,-0.0079 0.01638,-0.03275 0.03822,-0.06066 0.05522,-0.09465 0.01987,-0.03974 0.05554,-0.07712 0.07099,-0.118321 0.01876,-0.05002 -0.01751,-0.0013 0.0079,-0.03944 0.0041,-0.0062 0.01245,-0.0091 0.01578,-0.01577 0.01668,-0.03336 0.03684,-0.04472 0.0631,-0.07099 0.0097,-0.0097 0.01107,-0.02315 0.02366,-0.03155 0.01726,-0.01151 0.01676,-0.003 0.03155,-0.0079 0.0045,-0.0016 0.02372,-0.01376 0.03155,-0.0079 0.04651,0.03488 0.04776,0.06105 0.07888,0.102542 0.009,0.01199 0.03331,0.02106 0.03944,0.03944 0.0017,0.005 -0.0029,0.0114 0,0.01577 0.0072,0.01079 0.02752,0.01156 0.03155,0.02365 0.0017,0.005 -0.0024,0.01109 0,0.01577 0.01991,0.03982 0.06203,0.07326 0.102544,0.08677 0.02761,0.0092 0.05879,7.94e-4 0.08677,0.0079 0.03642,0.0091 0.07455,0.01468 0.110433,0.02365 0.02983,0.0075 0.101613,-0.0123 0.126208,0 0.01364,0.0068 0.02697,0.04476 0.03155,0.0631 0.01898,0.07592 -0.153124,0.05522 -0.1972,0.05522 -0.05085,0 -0.115107,0.01011 -0.165649,0 -0.01584,0.0019 -0.0257,-0.01233 -0.03944,-0.01577 -0.0051,-0.0013 -0.01107,0.0024 -0.01578,0 -0.0024,-0.0011 0.0022,-0.0064 0,-0.0079 -0.01384,-0.0092 -0.03349,-0.0066 -0.04733,-0.01577 -0.0022,-0.0013 -0.01963,-0.02551 -0.02366,-0.03155 0.0021,-0.01667 -0.01252,-0.003 -0.01578,-0.0079 -0.0046,-0.0069 -0.0029,-0.01701 -0.0079,-0.02365 -0.0096,-0.0048 -0.01764,-0.0067 -0.02366,-0.01577 -0.0026,-0.0053 -0.0053,-0.01053 -0.0079,-0.01577 0,-0.0026 0.0012,-0.0055 0,-0.0079 -0.0062,-0.01249 -0.02377,-0.01987 -0.03155,-0.03155 -0.01002,-0.01503 -0.01858,-0.03435 -0.03155,-0.04733 -0.0042,-0.0042 -0.01162,-0.0037 -0.01578,-0.0079 -0.0083,-0.0083 -0.0075,-0.02323 -0.01578,-0.03155 -0.0019,-0.0019 0.0019,0.006 0,0.0079 -0.0019,0.0019 -0.0053,0 -0.0079,0 -0.0079,0.0105 -0.01525,0.02146 -0.02366,0.03155 0.002,0.01217 -0.02648,0.0186 -0.03155,0.02365 -0.01268,0.01267 -0.0017,0.0222 -0.01578,0.03155 -0.01566,0.01045 -0.02018,0.0047 -0.03155,0.02365 -0.01395,0.02326 -0.01139,0.03506 -0.03155,0.05522 -0.02763,0.02763 -0.05254,0.105085 -0.07099,0.141984 -0.01053,0.02106 -0.02578,0.06066 -0.03944,0.07888 -0.0035,0.0047 -0.01225,0.0032 -0.01578,0.0079 -0.005,0.0066 -0.0029,0.01701 -0.0079,0.02365 -0.01441,0.01921 -0.01459,-0.0024 -0.02367,0.01577 -0.02006,0.04013 -0.0417,0.04678 -0.0631,0.07888 -0.0015,0.0021 0.0019,0.006 0,0.0079 -0.0048,0.0048 -0.01838,0.0052 -0.02366,0.01577 -0.0012,0.0024 0.0019,0.006 0,0.0079 -0.01025,0.01024 -0.0332,0.01106 -0.04733,0.01577 -0.03852,0.01283 -0.0539,0.04174 -0.09466,0.03155 -0.03439,-0.0086 -0.06376,-0.03703 -0.09466,-0.04733 -0.0192,-0.0064 -0.04357,-0.003 -0.0631,-0.0079 -0.02803,-0.007 -0.07002,-0.01746 -0.09466,-0.03155 -0.0065,-0.0037 -0.0094,-0.01196 -0.01578,-0.01577 -0.0129,-0.0077 -0.03463,-0.0094 -0.04733,-0.01577 -0.01056,-0.0053 -0.01093,-0.01881 -0.01578,-0.02365 -0.0042,-0.0042 -0.01225,-0.0032 -0.01578,-0.0079 -0.005,-0.0066 -0.0036,-0.01654 -0.0079,-0.02365 -0.0038,-0.0064 -0.01195,-0.0094 -0.01578,-0.01577 -0.01835,-0.03058 -0.02346,-0.07058 -0.03944,-0.102544 -0.0042,-0.0085 -0.01317,-0.01455 -0.01578,-0.02365 -0.0029,-0.01011 0.0033,-0.02156 0,-0.03155 -0.0024,-0.0071 -0.01165,-0.0096 -0.01578,-0.01577 -0.01632,-0.02447 -0.03842,-0.05368 -0.05522,-0.07888 -0.0099,-0.01482 -0.02338,-0.01548 -0.03155,-0.02365 -0.0037,-0.0037 0.0037,-0.01206 0,-0.01577 -0.0019,-0.0019 -0.0063,0.0021 -0.0079,0 -0.02613,-0.03484 -0.01811,-0.08569 -0.05522,-0.110434 -0.0041,-0.0028 -0.01815,0.02151 -0.03155,0.03155 -0.02611,0.01958 -0.03197,0.05563 -0.05522,0.07888 -0.01956,0.01955 -0.02077,0.01122 -0.03944,0.02365 -0.01245,0.0083 -0.0061,0.01939 -0.01578,0.03155 -0.01161,0.01453 -0.03112,0.02281 -0.03944,0.03944 -0.0024,0.0047 0.0017,0.0108 0,0.01577 -0.0035,0.01042 -0.01864,0.02151 -0.02366,0.03155 -0.003,0.0059 0.0036,0.0182 0,0.02365 -0.03403,0.05105 -0.05837,0.128177 -0.09466,0.173535 -0.01283,0.01603 -0.02492,0.03281 -0.03944,0.04733 -0.0019,0.0019 -0.006,-0.0019 -0.0079,0 -0.0037,0.0037 0.0037,0.01206 0,0.01577 -0.01531,0.01532 -0.119909,0.115171 -0.126208,0.11832 -0.0074,0.0037 -0.01675,0.0033 -0.02366,0.0079 -0.0022,0.0016 0.0024,0.0067 0,0.0079 -7.15e-4,2.64e-4 -0.106194,0.02852 -0.118321,0.03155 -0.0093,0.0024 -0.02317,-0.0042 -0.03155,0 -0.03491,0.01746 -0.09385,0.02585 -0.134096,0.01577 -0.0518,-0.01294 -0.110234,-0.03135 -0.149873,-0.07099 -0.01951,-0.01953 -0.03203,-0.04805 -0.04733,-0.07099 -0.0093,-0.014 -0.01965,-0.02754 -0.03155,-0.03944 -0.0019,-0.0019 -0.0064,0.0021 -0.0079,0 -0.0046,-0.0069 -0.0042,-0.01622 -0.0079,-0.02365 -0.01147,-0.02294 -0.02845,-0.02535 -0.03944,-0.04733 -0.0024,-0.0047 0.0024,-0.01109 0,-0.01577 -0.02548,-0.05097 -0.05861,-0.103703 -0.07888,-0.15776 -0.0151,-0.04027 -0.01534,-0.102114 -0.04733,-0.134097 -0.0019,-0.0019 -0.006,0.0019 -0.0079,0 -0.0044,-0.0044 0.0075,-0.03168 -0.03944,-0.04733 -0.01598,-0.0053 -0.09625,7.94e-4 -0.110432,0.0079 -0.0366,-0.0067 -0.0091,0.01696 -0.01578,0.02365 -0.01341,0.01341 -0.03392,0.01815 -0.04733,0.03155 -0.0146,0.0146 -0.01986,0.0298 -0.03155,0.04733 -0.01463,0.02193 -0.04541,0.02963 -0.0631,0.04733 -0.0042,0.0042 -0.0032,0.01225 -0.0079,0.01577 -0.009,0.0067 -0.02967,0.0109 -0.03944,0.01577 -0.01222,0.0061 -0.02814,0.02477 -0.03944,0.03155 -0.0071,0.0043 -0.01779,0.0021 -0.02367,0.0079 -0.0019,0.0019 0.0019,0.006 0,0.0079 -0.0037,0.0037 -0.01107,-0.0024 -0.01578,0 -0.0095,0.0047 -0.0142,0.01894 -0.02366,0.02365 -0.0047,0.0024 -0.01079,-0.0016 -0.01578,0 -0.029,0.0097 -0.05777,0.03573 -0.08677,0.04733 -0.0049,0.0019 -0.01079,-0.0016 -0.01578,0 -0.0048,0.0016 -0.01885,0.01418 -0.02366,0.01577 -0.0045,0.0016 -0.0205,-0.0032 -0.02366,0 -0.01417,0.01418 0.03404,0.0058 -0.01578,0.01577 -0.072,0.01439 -0.294545,0.0506 -0.370737,0.03155 -0.04062,-0.01016 0.01441,-0.0081 -0.03944,-0.01577 -0.01982,-0.0028 -0.06978,0.0091 -0.08677,-0.0079 -0.0019,-0.0019 0.0019,-0.006 0,-0.0079 -0.0036,-0.0037 -0.0189,0.0024 -0.02366,0 -0.0067,-0.0033 -0.0091,-0.01246 -0.01578,-0.01577 -0.0024,-0.0011 -0.0067,0.0024 -0.0079,0 -0.0047,-0.0094 0,-0.02103 0,-0.03155 0,-0.0081 -0.01377,-0.0099 -0.0079,-0.01577 0.0019,-0.0019 0.006,0.0019 0.0079,0 0.0059,-0.0059 0.01132,-0.02709 0.01578,-0.03155 0.0083,-0.0083 0.02177,-0.0093 0.03155,-0.01577 z"
         id="path23945" />
      <path
         style="fill:#cdba66;fill-opacity:1;stroke:none;stroke-width:0.264583px;stroke-linecap:butt;stroke-linejoin:miter;stroke-opacity:1"
         d="M 27.2,5.0294118 36,12.970588 V 11.441177 L 27.2,3.5 H 12.8 L 4,11.441177 v 1.529411 l 8.8,-7.9411762 z"
         id="path1382-6-6-0"
         sodipodi:nodetypes="ccccccccc" />
    </g>
  </g>
</svg>
