<?xml version="1.0" encoding="UTF-8" standalone="no"?>
<!-- Created with Inkscape (http://www.inkscape.org/) -->

<svg
   width="210mm"
   height="297mm"
   viewBox="0 0 210 297"
   version="1.1"
   id="svg5"
   inkscape:version="1.1 (c68e22c387, 2021-05-23)"
   sodipodi:docname="light_gun_up_left_1.svg"
   xmlns:inkscape="http://www.inkscape.org/namespaces/inkscape"
   xmlns:sodipodi="http://sodipodi.sourceforge.net/DTD/sodipodi-0.dtd"
   xmlns="http://www.w3.org/2000/svg"
   xmlns:svg="http://www.w3.org/2000/svg">
  <sodipodi:namedview
     id="namedview7"
     pagecolor="#ffffff"
     bordercolor="#999999"
     borderopacity="1"
     inkscape:pageshadow="0"
     inkscape:pageopacity="0"
     inkscape:pagecheckerboard="0"
     inkscape:document-units="mm"
     showgrid="false"
     inkscape:zoom="1.0482006"
     inkscape:cx="261.40035"
     inkscape:cy="217.03861"
     inkscape:window-width="1920"
     inkscape:window-height="1017"
     inkscape:window-x="1352"
     inkscape:window-y="-8"
     inkscape:window-maximized="1"
     inkscape:current-layer="layer1" />
  <defs
     id="defs2" />
  <g
     inkscape:label="Слой 1"
     inkscape:groupmode="layer"
     id="layer1">
    <path
       style="fill:#ffff00;stroke:none;stroke-width:0.264583px;stroke-linecap:butt;stroke-linejoin:miter;stroke-opacity:1"
       d="m -3.5609567,5.0381616 -2.0531285,0.661008 -4.9055018,-0.353139 3.842357,-0.727285 -3.482215,-0.537969 2.2086477,-0.560939 -4.1132567,-2.95572904 4.9106436,1.65985004 -1.2359454,-4.01067 3.2769329,3.419766 0.5647662,-2.08375304 0.782732,2.91941704 1.315018,-3.44404704 -0.253074,4.17515804 z"
       id="path863"
       sodipodi:nodetypes="ccccccccccccccc" />
    <g
       id="g13178-2-4"
       inkscape:transform-center-x="6.4695141"
       inkscape:transform-center-y="-5.3862283"
       transform="rotate(-139.75771,7.581189,7.7960843)">
      <path
         style="fill:#666666;fill-opacity:1;stroke:none;stroke-width:0.251005px;stroke-linecap:butt;stroke-linejoin:miter;stroke-opacity:1"
         d="M 0,1 V 4.9999997 H 18 C 19.308292,4.9999997 19.357499,1 18,1 Z"
         id="path5033-7-1"
         sodipodi:nodetypes="ccssc" />
      <path
         style="fill:#666666;fill-opacity:1;stroke:none;stroke-width:0.264583px;stroke-linecap:butt;stroke-linejoin:miter;stroke-opacity:1"
         d="M 0,0 C -2.022587,0 -1.9782935,6 0,6 H 8 C 10.018406,6 9.9816106,0 8,0 Z"
         id="path4158-6-8"
         sodipodi:nodetypes="sssss" />
    </g>
    <g
       id="g15707">
      <path
         style="fill:#808000;stroke:none;stroke-width:0.264583px;stroke-linecap:butt;stroke-linejoin:miter;stroke-opacity:1"
         d="M 20,20 0,36.999999 20,54 40,36.999999 Z"
         id="path1170-8"
         sodipodi:nodetypes="ccccc" />
      <path
         style="fill:#a5a500;fill-opacity:1;stroke:none;stroke-width:0.264583px;stroke-linecap:butt;stroke-linejoin:miter;stroke-opacity:1"
         d="M 20,0 0,16.999999 20,34 40,16.999999 Z"
         id="path1170-8-8"
         sodipodi:nodetypes="ccccc" />
      <path
         style="fill:#909000;fill-opacity:1;stroke:none;stroke-width:0.236661px;stroke-linecap:butt;stroke-linejoin:miter;stroke-opacity:1"
         d="m 0,16.999999 v 20 L 20,54 40,36.999999 v -20 L 20,34 Z"
         id="path1797-9-2"
         sodipodi:nodetypes="ccccccc" />
    </g>
  </g>
</svg>
